<?xml version="1.0" standalone="no"?>
<!DOCTYPE svg PUBLIC "-//W3C//DTD SVG 20010904//EN"
 "http://www.w3.org/TR/2001/REC-SVG-20010904/DTD/svg10.dtd">
<svg version="1.0" xmlns="http://www.w3.org/2000/svg"
 width="3000.000000pt" height="1200.000000pt" viewBox="0 0 3000.000000 1200.000000"
 preserveAspectRatio="xMidYMid meet">

<g transform="translate(0.000000,1200.000000) scale(0.100000,-0.100000)"
fill="#000000" stroke="none">
<path d="M17003 11983 c-4 -10 -7 -35 -8 -55 0 -37 -1 -38 -37 -38 -41 0 -68
-21 -68 -53 0 -12 -6 -107 -15 -212 -8 -104 -22 -289 -31 -410 -8 -121 -16
-224 -17 -229 -2 -7 53 -29 59 -23 1 1 18 184 39 407 20 222 38 406 40 408 2
2 170 -37 372 -86 202 -50 481 -118 618 -152 138 -34 385 -94 550 -135 793
-195 979 -241 1225 -300 146 -36 288 -71 315 -79 28 -8 95 -24 149 -36 l99
-23 -7 -221 c-4 -122 -13 -410 -21 -641 -8 -231 -19 -591 -26 -800 -6 -209
-13 -381 -14 -383 -1 -1 -62 11 -136 27 -256 57 -365 81 -504 110 -249 53
-701 150 -1100 237 -394 86 -632 137 -715 154 -25 5 -85 18 -135 29 -306 67
-840 181 -848 181 -6 0 -8 40 -4 104 l7 104 -32 6 c-17 3 -32 5 -33 4 -1 -2
-9 -97 -19 -213 -10 -115 -23 -229 -29 -253 -9 -35 -9 -45 4 -58 16 -15 138
-49 146 -40 3 3 -20 36 -51 75 -31 38 -56 77 -56 85 0 18 31 86 39 86 4 0 12
-10 20 -22 12 -20 89 -124 504 -680 53 -72 97 -133 97 -134 0 -2 -5 -15 -11
-31 l-11 -28 -34 40 c-19 22 -74 87 -122 145 -47 58 -89 107 -93 110 -3 3 -34
41 -69 85 -34 44 -76 94 -93 110 -26 27 -28 27 -17 6 10 -20 9 -42 -4 -120 -9
-53 -21 -108 -25 -123 -5 -15 -7 -36 -4 -47 3 -10 0 -22 -6 -25 -6 -4 -11 -16
-11 -26 0 -10 -4 -20 -8 -22 -5 -1 -12 -56 -16 -120 -5 -101 -4 -118 9 -118 8
0 15 -7 15 -15 0 -9 17 -23 38 -33 20 -9 46 -25 57 -36 11 -10 47 -31 80 -45
53 -24 65 -26 110 -18 58 10 140 57 174 99 14 17 24 43 25 66 l1 37 98 -22
c101 -22 146 -37 90 -28 -19 2 -33 0 -33 -6 0 -6 -4 -8 -9 -5 -4 3 -16 -3 -26
-14 -10 -11 -24 -20 -32 -20 -7 0 -13 -8 -13 -17 0 -9 -3 -14 -6 -10 -8 8 -40
-24 -48 -48 -3 -11 -8 -73 -11 -139 -5 -133 -10 -170 -31 -237 -22 -69 -37
-78 -109 -68 -33 5 -100 13 -149 19 -49 5 -97 12 -108 16 -28 9 -84 -14 -118
-48 -17 -16 -30 -31 -30 -33 0 -1 33 -6 73 -9 61 -6 131 -2 387 18 54 5 238
-12 258 -23 15 -9 14 -11 -8 -12 -17 -1 -13 -4 15 -9 41 -8 102 9 72 20 -9 3
46 6 121 6 94 1 162 7 214 19 l77 18 -19 26 c-10 14 -40 49 -66 77 -63 66
-114 130 -114 143 0 6 -4 11 -9 11 -14 0 -28 52 -21 80 3 14 14 26 25 28 42 7
100 34 121 57 30 33 40 65 23 76 -17 11 -8 9 231 -36 230 -45 513 -105 520
-111 2 -3 0 -8 -6 -12 -17 -11 -56 -136 -52 -168 2 -22 9 -30 28 -32 30 -5
100 15 100 28 0 6 11 10 23 10 13 0 32 9 42 20 26 29 115 26 115 -4 0 -15 39
-29 162 -56 116 -27 262 -25 315 3 18 9 42 19 55 21 13 2 22 9 21 15 -4 14 0
14 70 0 39 -8 54 -15 49 -23 -5 -6 -8 -31 -6 -56 6 -70 -4 -110 -29 -120 -17
-7 -8 -9 35 -9 31 -1 60 -5 63 -11 3 -5 -3 -10 -14 -10 -12 0 -21 -5 -21 -11
0 -8 -14 -10 -42 -6 -30 4 -38 3 -27 -5 11 -7 9 -8 -6 -3 -11 4 -33 11 -50 15
-19 5 -23 8 -11 9 13 1 17 4 10 11 -6 6 -101 9 -244 9 -129 -1 -277 -1 -327 0
-51 2 -93 0 -93 -3 0 -4 12 -11 28 -17 26 -11 25 -12 -33 -25 -45 -9 -75 -10
-124 -2 -35 6 -58 14 -51 18 6 4 -19 12 -57 18 -37 6 -108 18 -158 27 -157 27
-410 20 -515 -14 -30 -10 -170 -53 -188 -57 -7 -2 -10 -8 -7 -14 3 -5 -2 -10
-12 -11 -16 0 -16 -1 2 -9 37 -16 -26 -12 -81 5 -222 69 -508 78 -717 23 -58
-15 -81 -18 -90 -9 -6 6 -39 11 -73 11 -35 0 -65 4 -68 8 -3 5 -45 20 -93 32
-63 17 -88 21 -91 12 -2 -7 -8 -12 -13 -12 -6 0 -7 5 -3 11 5 8 -4 10 -30 7
-20 -2 -36 0 -36 4 0 11 -44 10 -56 -2 -5 -5 -24 -6 -49 0 -44 10 -169 -15
-159 -31 3 -5 -5 -9 -18 -9 -16 0 -19 3 -10 8 8 6 2 9 -17 9 -17 0 -28 -4 -26
-8 3 -3 -2 -12 -10 -19 -17 -14 -49 -5 -39 11 4 7 0 9 -12 6 -11 -3 -45 -8
-77 -12 -31 -4 -55 -10 -53 -13 2 -4 -33 -5 -77 -4 -45 2 -79 1 -75 -3 3 -4
46 -15 95 -26 75 -17 95 -18 138 -8 95 23 352 14 551 -19 41 -7 73 -3 169 19
66 16 122 26 125 23 10 -11 -31 -32 -75 -39 -29 -4 -45 -11 -45 -21 0 -8 -5
-14 -12 -14 -19 0 1 -14 45 -32 l42 -18 -90 4 c-90 3 -182 20 -199 37 -6 5
-23 9 -38 9 -15 0 -28 3 -28 8 0 4 -10 8 -22 8 -71 5 -115 11 -126 18 -7 4
-12 2 -12 -4 0 -7 -10 -9 -27 -6 -103 22 -237 15 -378 -21 -33 -8 -64 -16 -70
-18 -5 -1 -18 -5 -27 -10 -10 -4 -29 -8 -43 -9 -14 0 -25 -4 -25 -8 0 -11 -76
-20 -116 -12 -38 7 -37 8 51 30 50 12 100 23 113 23 12 1 22 6 22 12 0 7 -20
9 -61 5 -44 -5 -59 -3 -53 5 4 8 0 9 -15 4 -13 -4 -21 -2 -21 6 0 8 -13 10
-40 6 -25 -3 -38 -1 -34 5 4 6 -9 9 -33 7 -21 -2 -45 1 -52 5 -22 14 -314 36
-327 25 -6 -5 -30 -7 -53 -4 -27 3 -40 1 -36 -5 3 -6 0 -10 -8 -10 -8 0 -17
-7 -21 -15 -7 -18 -27 -20 -23 -3 1 7 9 18 17 25 20 17 8 16 -25 -1 -17 -9
-22 -16 -13 -19 9 -4 7 -6 -4 -6 -10 -1 -18 -5 -18 -11 0 -5 -7 -10 -16 -10
-14 0 -14 3 -4 15 16 20 6 19 -25 -1 -14 -9 -25 -23 -25 -31 0 -10 -9 -14 -27
-13 -73 5 -86 -2 -25 -14 42 -9 82 -10 125 -4 68 10 340 -4 422 -22 182 -38
338 -63 385 -63 30 0 118 1 195 2 143 2 352 -13 415 -29 19 -6 64 -10 100 -10
36 0 72 -5 80 -11 12 -8 10 -9 -7 -4 -13 4 -23 2 -23 -4 0 -5 10 -13 23 -16
53 -17 116 -48 112 -56 -3 -4 -17 -4 -31 1 -14 6 -30 7 -35 4 -6 -3 -18 1 -27
9 -24 20 -52 28 -52 15 0 -7 -4 -7 -12 0 -7 5 -35 13 -63 17 -27 4 -70 15 -95
26 -63 26 -133 40 -169 33 -22 -5 -31 -3 -31 6 0 10 -36 11 -162 7 -90 -3
-181 -9 -203 -13 -22 -4 -73 -8 -112 -8 -40 -1 -73 -4 -73 -8 0 -5 6 -8 13 -9
17 -1 -84 -29 -108 -29 -11 0 -31 -6 -45 -13 -14 -7 -47 -19 -75 -26 -27 -7
-56 -15 -62 -17 -7 -2 -13 0 -13 5 0 9 19 15 174 56 48 13 91 26 93 29 10 10
-48 18 -87 13 -27 -3 -37 -1 -34 7 3 8 -8 11 -33 10 -21 -1 -43 3 -49 8 -8 5
-14 3 -18 -7 -3 -8 -13 -15 -22 -15 -10 0 -14 5 -10 16 3 8 2 12 -3 9 -5 -3
-13 0 -17 6 -5 8 -9 8 -14 -2 -6 -9 -16 -9 -43 5 -20 9 -63 17 -96 18 -34 1
-61 5 -61 10 0 13 -50 9 -50 -4 -1 -8 -6 -6 -14 5 -14 18 -14 18 -18 1 -3 -16
-5 -17 -17 -3 -11 12 -28 13 -80 8 -37 -4 -67 -3 -69 2 -2 5 -11 9 -19 9 -9 0
-13 -6 -9 -15 4 -13 2 -13 -14 -5 -24 13 -63 13 -77 -1 -5 -5 -25 -11 -42 -11
-17 -1 -34 -5 -38 -11 -3 -5 -9 -3 -14 4 -8 12 -11 12 -18 -1 -7 -9 -23 -13
-48 -12 -21 1 -45 -3 -53 -9 -13 -9 -12 -10 3 -5 11 3 16 2 12 -4 -8 -13 -35
-13 -35 -1 0 5 -12 8 -27 5 -16 -2 -48 -6 -73 -10 -25 -4 -61 -8 -81 -9 -41
-3 -105 -22 -134 -41 -11 -7 -47 -22 -80 -32 -98 -31 -252 -137 -311 -212 -24
-31 -32 -168 -14 -238 7 -26 17 -83 21 -127 11 -108 11 -105 24 -105 18 0 27
-65 31 -218 4 -147 -6 -182 -52 -182 -12 0 -26 -5 -29 -10 -4 -6 -18 -10 -33
-9 -28 1 -257 -16 -354 -27 -41 -5 -58 -3 -58 5 0 7 -27 11 -80 11 -44 0 -80
-3 -80 -8 0 -19 -1029 -21 -1040 -1 -5 8 -30 9 -84 4 -54 -5 -76 -4 -76 4 0 7
-28 11 -80 11 -44 0 -80 4 -80 8 0 12 -272 42 -382 42 -59 0 -98 4 -98 10 0 6
-18 10 -41 10 -22 0 -38 3 -36 8 3 4 -85 6 -196 4 -127 -2 -203 1 -207 7 -5 9
-1992 47 -2234 42 -50 0 -82 3 -87 10 -5 9 -255 13 -923 17 -504 3 -916 9
-916 13 0 5 -18 9 -40 9 -22 0 -40 -4 -40 -9 0 -4 -448 -10 -996 -13 -676 -3
-998 -8 -1002 -15 -5 -7 -193 -13 -557 -17 -1092 -14 -1679 -26 -1685 -35 -3
-6 -75 -12 -160 -14 -107 -2 -155 -7 -158 -15 -2 -8 -38 -12 -115 -12 -142 0
-680 -31 -687 -40 -3 -4 -74 -10 -159 -12 -104 -4 -156 -10 -161 -18 -6 -9
-127 -13 -484 -18 l-476 -5 0 -3219 0 -3218 15000 0 15000 0 0 6000 0 6000
-6495 0 c-6177 0 -6496 -1 -6502 -17z m1094 -369 c-3 -3 -12 -4 -19 -1 -8 3
-5 6 6 6 11 1 17 -2 13 -5z m40 -10 c-3 -3 -12 -4 -19 -1 -8 3 -5 6 6 6 11 1
17 -2 13 -5z m3683 -73 c0 -14 -18 -23 -30 -16 -6 4 -8 11 -5 16 8 12 35 12
35 0z m-982 -39 c2 -8 -6 -16 -19 -19 l-23 -6 22 -8 c12 -5 22 -16 22 -25 0
-9 11 -29 25 -46 14 -16 25 -40 25 -53 0 -13 3 -30 6 -39 5 -12 0 -16 -19 -16
-26 0 -60 39 -62 74 -1 10 -11 26 -23 35 -23 17 -56 97 -46 113 9 14 87 5 92
-10z m-2031 -58 c-3 -3 -12 -4 -19 -1 -8 3 -5 6 6 6 11 1 17 -2 13 -5z m468
-114 c13 -5 14 -9 5 -9 -8 0 -24 4 -35 9 -13 5 -14 9 -5 9 8 0 24 -4 35 -9z
m102 -26 c-3 -3 -12 -4 -19 -1 -8 3 -5 6 6 6 11 1 17 -2 13 -5z m120 -30 c-3
-3 -12 -4 -19 -1 -8 3 -5 6 6 6 11 1 17 -2 13 -5z m40 -10 c-3 -3 -12 -4 -19
-1 -8 3 -5 6 6 6 11 1 17 -2 13 -5z m40 -10 c-3 -3 -12 -4 -19 -1 -8 3 -5 6 6
6 11 1 17 -2 13 -5z m40 -10 c-3 -3 -12 -4 -19 -1 -8 3 -5 6 6 6 11 1 17 -2
13 -5z m40 -10 c-3 -3 -12 -4 -19 -1 -8 3 -5 6 6 6 11 1 17 -2 13 -5z m161
-35 c50 -12 90 -24 87 -27 -5 -5 -225 48 -225 55 0 3 10 3 23 0 12 -3 64 -16
115 -28z m220 -55 c56 -15 100 -29 98 -31 -4 -4 -208 46 -215 53 -9 8 16 4
117 -22z m217 -55 l20 -8 -20 0 c-11 0 -38 7 -60 14 l-40 14 40 -6 c22 -3 49
-9 60 -14z m72 -26 c10 -10 14 -15 8 -11 -6 4 -22 12 -36 17 -15 6 -18 10 -8
10 9 1 25 -7 36 -16z m20 -280 c-2 -27 -3 -5 -3 47 0 52 1 74 3 48 2 -27 2
-69 0 -95z m-10 -245 c-2 -24 -4 -7 -4 37 0 44 2 63 4 43 2 -21 2 -57 0 -80z
m-20 -625 c-2 -21 -4 -6 -4 32 0 39 2 55 4 38 2 -18 2 -50 0 -70z m-3172 -463
c3 -5 1 -10 -4 -10 -6 0 -11 5 -11 10 0 6 2 10 4 10 3 0 8 -4 11 -10z m3152
-152 c-3 -8 -6 -5 -6 6 -1 11 2 17 5 13 3 -3 4 -12 1 -19z m-3327 -168 c0 -5
-2 -10 -4 -10 -3 0 -8 5 -11 10 -3 6 -1 10 4 10 6 0 11 -4 11 -10z m996 -122
c3 -5 4 -11 1 -14 -7 -7 -57 14 -57 24 0 12 48 3 56 -10z m3928 -123 c-3 -16
-10 -38 -16 -47 -13 -26 -81 -58 -133 -63 -25 -3 -61 -12 -81 -20 -20 -8 -61
-19 -90 -24 -57 -8 -65 -3 -56 45 5 28 111 78 166 79 12 0 37 22 62 55 54 71
87 80 127 36 22 -25 26 -37 21 -61z m-729 46 c3 -5 1 -12 -5 -16 -5 -3 -10 1
-10 9 0 18 6 21 15 7z m-848 -106 c46 -19 127 -90 334 -290 91 -88 215 -206
275 -262 l109 -101 -37 3 c-35 2 -38 0 -38 -25 0 -15 -11 -39 -26 -56 -16 -16
-22 -30 -15 -32 17 -6 13 -22 -6 -23 -10 0 -2 -7 17 -14 19 -7 30 -14 23 -14
-13 -1 -739 143 -1078 214 -437 91 -501 105 -570 120 -38 8 -74 15 -79 15 -5
0 -7 2 -4 5 3 3 80 -8 172 -25 187 -35 243 -35 91 0 -98 22 -161 50 -82 36 28
-5 37 -4 35 6 -2 9 11 14 40 16 27 2 42 8 42 16 0 8 15 19 33 27 17 7 50 27
72 45 22 17 57 39 78 49 20 9 37 24 37 32 0 11 8 13 28 9 79 -15 112 -17 112
-7 0 6 -19 15 -42 21 -24 6 -47 12 -53 14 -5 2 9 5 32 7 23 3 40 3 38 1 -2 -2
11 -17 30 -33 25 -22 55 -34 126 -50 52 -11 102 -18 113 -15 10 3 28 -1 40 -8
28 -18 233 -59 253 -52 8 4 22 1 29 -5 22 -18 216 -61 227 -50 10 10 -2 14
-144 45 -54 12 -84 25 -100 42 -27 28 -22 29 67 9 36 -9 74 -14 83 -12 17 3
-27 14 -323 76 -157 33 -193 44 -214 64 l-24 25 28 -3 c16 -1 36 -4 44 -8 20
-7 403 -87 420 -87 38 0 -16 15 -186 50 -211 45 -240 54 -255 83 -6 11 -7 17
-1 13 5 -3 29 -8 53 -11 24 -3 103 -18 174 -35 138 -31 159 -34 135 -21 -8 5
-55 16 -105 26 -102 20 -144 35 -164 58 -18 22 -10 22 103 -3 97 -22 120 -24
96 -11 -8 4 -75 21 -147 36 -73 15 -133 32 -133 36 0 5 5 9 11 9 5 0 7 5 3 11
-4 7 0 9 12 5 38 -11 186 -37 191 -33 2 3 -32 13 -76 22 -106 23 -136 43 -56
37 40 -3 55 0 51 7 -11 17 58 14 101 -4z m-250 -51 c-3 -3 -12 -4 -19 -1 -8 3
-5 6 6 6 11 1 17 -2 13 -5z m31 -35 c13 -5 30 -16 38 -24 14 -13 14 -15 -1
-15 -30 0 -155 32 -160 41 -4 5 5 5 20 -1 37 -14 42 -12 19 5 -18 14 -16 15
21 9 22 -4 50 -11 63 -15z m-148 -42 c30 -4 38 -3 25 3 -11 5 -31 9 -45 10
-14 1 -19 4 -12 7 21 8 109 -17 128 -38 9 -10 13 -19 8 -19 -28 0 -167 40
-177 50 -10 10 -8 10 8 3 11 -6 40 -13 65 -16z m-93 -14 c-8 -8 11 -33 25 -33
6 0 4 7 -3 16 -12 15 -11 16 6 12 11 -3 41 -11 66 -18 25 -6 51 -20 57 -31 14
-21 20 -21 -78 1 -19 4 -47 11 -62 14 -18 4 -25 11 -23 23 5 24 4 23 12 23 3
0 3 -3 0 -7z m-172 -33 c3 -5 1 -10 -4 -10 -6 0 -11 5 -11 10 0 6 2 10 4 10 3
0 8 -4 11 -10z m109 -19 c3 -5 -3 -11 -13 -14 -14 -3 -18 -1 -14 9 6 16 19 18
27 5z m143 -21 c26 -6 62 -12 78 -14 48 -6 89 -25 103 -46 15 -25 17 -25 -98
0 -69 15 -102 28 -120 45 -28 28 -28 29 37 15z m2010 0 c26 -5 77 -15 113 -22
36 -7 68 -13 73 -14 4 -1 15 -2 25 -3 21 -1 82 -83 82 -111 0 -24 -19 -29
-108 -25 -53 2 -86 9 -124 28 -67 33 -78 26 -131 -85 -37 -77 -47 -90 -82
-107 l-40 -19 -18 29 c-45 69 -29 171 39 243 24 26 44 51 44 56 0 7 57 39 72
40 3 0 28 -4 55 -10z m-2224 -27 c-7 -2 -19 -2 -25 0 -7 3 -2 5 12 5 14 0 19
-2 13 -5z m-2090 -20 c-7 -2 -19 -2 -25 0 -7 3 -2 5 12 5 14 0 19 -2 13 -5z
m2600 -13 c129 -28 162 -39 175 -61 15 -23 20 -24 -112 3 -88 17 -116 27 -140
49 -17 16 -28 29 -23 29 4 0 49 -9 100 -20z m-1918 -30 c338 -68 1059 -214
2150 -436 176 -36 427 -87 558 -114 131 -26 241 -50 244 -54 3 -3 0 -13 -8
-22 -9 -11 -22 -14 -43 -9 -17 3 -53 10 -81 15 -27 5 -93 18 -145 30 -52 11
-318 65 -590 120 -272 55 -571 116 -665 135 -93 20 -224 46 -290 60 -171 34
-868 177 -1075 220 -96 21 -177 39 -180 42 -3 3 11 3 30 -1 19 -3 60 -8 90
-10 47 -5 50 -4 20 4 -57 15 -111 27 -169 39 -30 6 -57 14 -60 17 -7 7 23 2
214 -36z m-238 14 c-3 -3 -12 -4 -19 -1 -8 3 -5 6 6 6 11 1 17 -2 13 -5z m46
-11 c-7 -2 -19 -2 -25 0 -7 3 -2 5 12 5 14 0 19 -2 13 -5z m974 -129 c-3 -3
-12 -4 -19 -1 -8 3 -5 6 6 6 11 1 17 -2 13 -5z m112 -20 c10 -9 -45 -3 -59 6
-11 7 -5 8 20 4 19 -4 37 -8 39 -10z m-214 -84 c14 -7 8 -8 -20 -3 -22 3 -42
7 -44 9 -9 8 45 2 64 -6z m1386 -304 c68 -14 171 -28 229 -31 60 -4 192 -26
310 -51 113 -24 230 -45 260 -45 30 -1 48 -3 39 -6 -9 -2 -19 -14 -21 -27 -4
-19 -1 -22 19 -18 18 3 26 -1 30 -16 3 -12 14 -24 24 -27 17 -6 29 -38 12 -33
-5 1 -20 -6 -35 -16 -16 -10 -35 -16 -43 -12 -8 3 -16 0 -16 -7 -1 -7 -4 2 -8
18 -8 38 -35 40 -39 2 -3 -24 -5 -25 -18 -12 -20 19 -34 19 -34 0 0 -8 -7 -15
-15 -15 -9 0 -12 6 -8 16 9 23 -18 36 -32 17 -10 -14 -20 -15 -66 -6 -43 9
-57 8 -73 -3 -11 -8 -38 -14 -59 -14 -32 0 -38 -3 -33 -16 5 -13 4 -14 -7 -6
-8 7 -16 11 -18 9 -2 -1 2 4 10 11 8 6 28 12 43 12 16 0 31 7 34 15 4 8 9 13
14 10 4 -2 24 5 46 15 21 11 48 20 61 20 12 0 25 5 28 11 4 6 13 8 21 5 8 -3
17 1 20 9 7 17 -13 45 -30 44 -7 0 -6 -2 2 -6 14 -5 17 -33 3 -33 -6 0 -12 4
-15 9 -3 4 -20 12 -38 15 -30 7 -31 8 -12 16 24 9 41 30 25 30 -5 0 -11 -5
-13 -11 -3 -9 -9 -9 -25 0 -12 6 -33 11 -47 11 -13 0 -26 4 -28 10 -2 6 -16 6
-41 -1 -48 -13 -211 -17 -214 -5 -3 20 -31 26 -85 20 -41 -4 -58 -3 -58 6 0 6
-4 9 -9 6 -5 -4 -22 -1 -38 5 -15 7 -36 14 -46 16 -10 2 -25 9 -32 17 -8 7
-36 17 -62 21 -26 4 -51 11 -54 16 -3 6 -50 14 -105 18 l-99 8 111 2 c81 1
144 -6 235 -23z m-434 8 c-3 -3 -12 -4 -19 -1 -8 3 -5 6 6 6 11 1 17 -2 13 -5z
m-140 -30 c-3 -3 -12 -4 -19 -1 -8 3 -5 6 6 6 11 1 17 -2 13 -5z m-44 -11 c-7
-2 -19 -2 -25 0 -7 3 -2 5 12 5 14 0 19 -2 13 -5z m-1960 -110 c-7 -2 -21 -2
-30 0 -10 3 -4 5 12 5 17 0 24 -2 18 -5z m3173 -36 c8 3 14 0 14 -7 0 -15 -33
-9 -36 8 -1 7 0 8 2 3 3 -6 12 -7 20 -4z m-96 -27 c0 -5 -5 -10 -11 -10 -5 0
-7 5 -4 10 3 6 8 10 11 10 2 0 4 -4 4 -10z m-5080 -50 c18 -12 2 -12 -25 0
-13 6 -15 9 -5 9 8 0 22 -4 30 -9z m5370 -10 c0 -11 -4 -20 -10 -20 -5 0 -10
9 -10 20 0 11 5 20 10 20 6 0 10 -9 10 -20z m-4437 3 c-7 -2 -19 -2 -25 0 -7
3 -2 5 12 5 14 0 19 -2 13 -5z m3711 -28 c70 -8 131 -17 135 -20 4 -2 41 -9
82 -14 41 -6 90 -14 109 -18 19 -4 50 -7 68 -8 17 0 32 -3 32 -7 0 -7 71 -31
95 -32 9 -1 11 -9 7 -36 -1 -6 -34 -9 -81 -7 -44 1 -77 5 -75 9 2 4 0 9 -6 13
-5 3 -10 1 -10 -5 0 -8 -7 -9 -17 -5 -10 3 -49 9 -88 11 -38 3 -87 8 -108 11
-31 4 -36 3 -31 -11 4 -11 1 -16 -10 -16 -9 0 -16 7 -16 15 0 8 -4 15 -10 15
-5 0 -10 -7 -10 -15 0 -8 5 -15 10 -15 15 0 12 -36 -2 -38 -7 0 -28 -3 -47 -6
-18 -3 -31 -3 -27 1 3 3 16 7 29 9 12 1 25 3 30 3 4 1 7 5 7 11 0 5 -7 7 -15
4 -18 -7 -20 7 -3 24 17 17 -18 27 -48 13 -35 -16 -44 -14 -44 9 0 11 -4 20
-10 20 -5 0 -10 -7 -10 -15 0 -21 -22 -19 -43 5 -12 14 -24 18 -45 14 -20 -4
-34 0 -45 11 -15 15 -18 15 -23 1 -9 -23 -22 -20 -26 6 -2 12 -9 23 -17 26
-10 3 -12 -2 -7 -22 6 -24 4 -26 -26 -25 -24 1 -27 3 -10 6 12 2 22 11 22 18
0 11 -19 13 -90 12 -49 -1 -90 -6 -90 -11 0 -4 -9 -6 -20 -3 -11 3 -20 2 -20
-3 0 -4 -35 -6 -77 -5 -43 2 -68 1 -56 -2 l23 -4 -25 -27 c-24 -25 -31 -27
-119 -28 -74 -1 -93 2 -89 12 3 8 31 19 64 26 36 7 54 15 46 20 -8 5 -4 8 11
8 12 0 39 7 59 15 39 16 110 29 283 50 145 17 234 17 384 0z m855 -3 c-7 -3
-17 -10 -21 -16 -5 -8 -11 -7 -20 2 -9 9 -9 12 5 12 9 0 17 4 17 10 0 5 8 6
17 3 14 -5 14 -8 2 -11z m-2926 -9 c-7 -2 -21 -2 -30 0 -10 3 -4 5 12 5 17 0
24 -2 18 -5z m107 -13 c17 -6 9 -7 -25 -3 -27 3 -52 7 -54 9 -8 7 54 2 79 -6z
m2608 0 c11 0 13 -3 6 -10 -6 -6 -25 -7 -43 -4 -23 5 -29 9 -19 15 7 5 19 7
26 4 8 -3 21 -5 30 -5z m-174 -17 c4 -9 -3 -9 -27 -1 -44 15 -45 18 -9 15 18
-1 34 -7 36 -14z m-6380 0 c-5 -5 -12 -12 -16 -18 -4 -6 -8 -2 -8 8 0 9 7 17
17 17 9 0 12 -3 7 -7z m4081 -14 c13 -13 -1 -11 -60 6 l-50 15 50 -6 c28 -3
54 -10 60 -15z m2340 1 c3 -5 2 -10 -4 -10 -5 0 -13 5 -16 10 -3 6 -2 10 4 10
5 0 13 -4 16 -10z m-2425 -10 c0 -5 -2 -10 -4 -10 -3 0 -8 5 -11 10 -3 6 -1
10 4 10 6 0 11 -4 11 -10z m160 -12 c0 -6 9 -8 20 -5 10 3 50 -6 87 -20 40
-14 101 -27 146 -30 43 -3 80 -10 84 -16 4 -6 -7 -7 -30 -3 -19 4 -38 3 -41
-2 -3 -5 -18 -7 -32 -4 -18 3 -25 1 -20 -6 3 -6 1 -14 -5 -18 -8 -4 -9 -3 -5
4 11 18 -15 14 -36 -5 -10 -9 -18 -11 -18 -5 0 6 8 15 17 21 30 16 5 26 -68
26 -38 0 -69 3 -69 6 0 3 -10 5 -22 5 -18 -1 -22 4 -20 23 2 22 0 23 -34 18
-35 -6 -36 -5 -20 12 17 19 66 18 66 -1z m2322 4 c8 -8 9 -12 1 -12 -18 0 -43
12 -43 20 0 12 28 6 42 -8z m-6487 -13 c30 -1 34 -3 15 -7 -19 -4 -9 -9 45
-22 59 -14 67 -18 50 -27 -24 -12 -235 -5 -235 8 0 5 19 10 43 10 39 1 40 2
12 9 -16 4 -58 8 -92 9 -35 0 -63 5 -63 10 0 15 55 18 225 10z m5339 5 c18 -7
12 -24 -10 -24 -8 0 -14 7 -14 15 0 17 2 18 24 9z m53 0 c-3 -3 -12 -4 -19 -1
-8 3 -5 6 6 6 11 1 17 -2 13 -5z m80 0 c-3 -3 -12 -4 -19 -1 -8 3 -5 6 6 6 11
1 17 -2 13 -5z m-32 -14 c3 -5 -1 -10 -9 -10 -9 0 -16 5 -16 10 0 6 4 10 9 10
6 0 13 -4 16 -10z m63 -10 c-7 -10 -14 -18 -15 -16 -6 6 9 36 18 36 5 0 4 -9
-3 -20z m1046 4 c3 -7 -3 -10 -15 -7 -27 7 -34 22 -9 20 10 -1 22 -7 24 -13z
m-6797 0 c-3 -3 -12 -4 -19 -1 -8 3 -5 6 6 6 11 1 17 -2 13 -5z m453 -4 c13
-9 13 -10 0 -9 -8 0 -24 4 -35 9 l-20 9 20 0 c11 0 27 -4 35 -9z m3860 0 c0
-5 -7 -10 -16 -10 -8 0 -12 5 -9 10 3 6 10 10 16 10 5 0 9 -4 9 -10z m57 -22
c-3 -8 -6 -5 -6 6 -1 11 2 17 5 13 3 -3 4 -12 1 -19z m926 5 c-25 -10 -12 -20
31 -26 70 -10 185 -85 169 -110 -4 -6 0 -8 10 -4 21 8 44 -28 25 -39 -7 -4 -8
-3 -4 4 10 16 -6 15 -24 0 -12 -11 -12 -10 -2 3 10 13 10 18 -2 22 -7 3 -20 0
-27 -6 -7 -7 -5 -2 5 11 20 23 10 31 -13 10 -11 -11 -13 -10 -7 0 4 6 -1 20
-10 30 -17 16 -17 16 -11 -7 5 -21 2 -20 -22 10 -16 19 -35 34 -42 35 -19 0
-118 48 -119 56 0 3 8 9 18 11 23 6 40 7 25 0z m1037 -14 c0 -11 -27 -12 -34
0 -3 4 -3 11 0 14 8 8 34 -3 34 -14z m417 4 c2 -6 19 -7 46 -2 23 4 46 4 52 1
5 -4 -12 -10 -40 -13 -27 -4 -60 -9 -71 -12 -18 -5 -21 -2 -17 16 4 18 3 19
-6 7 -6 -8 -11 -10 -11 -4 0 6 3 13 6 16 8 9 37 3 41 -9z m-6232 -11 c-3 -3
-11 0 -18 7 -9 10 -8 11 6 5 10 -3 15 -9 12 -12z m532 12 c-3 -3 -12 -4 -19
-1 -8 3 -5 6 6 6 11 1 17 -2 13 -5z m-582 -22 c-3 -3 -11 0 -18 7 -9 10 -8 11
6 5 10 -3 15 -9 12 -12z m2115 1 c2 -2 -26 -3 -63 -2 -37 1 -64 6 -61 11 5 8
113 1 124 -9z m-1547 -7 c37 -13 81 -45 74 -53 -2 -2 -25 8 -50 23 -26 14 -50
23 -54 21 -5 -3 -19 1 -33 9 l-25 13 25 0 c14 0 42 -6 63 -13z m4192 5 c20 -4
26 -9 17 -14 -7 -5 -10 -12 -8 -16 7 -11 -27 -10 -42 2 -7 5 -15 7 -19 3 -3
-3 -16 0 -27 8 -28 18 -186 21 -186 3 0 -8 -3 -9 -8 -1 -4 6 -31 11 -60 12
-30 0 -56 3 -59 6 -8 8 354 5 392 -3z m-4354 -11 c10 -6 19 -16 19 -22 0 -7
-5 -6 -15 2 -8 7 -24 10 -35 7 -11 -3 -18 -1 -15 3 3 5 -5 11 -17 13 -17 3
-14 5 10 6 18 0 42 -4 53 -9z m2076 4 c-3 -3 -12 -4 -19 -1 -8 3 -5 6 6 6 11
1 17 -2 13 -5z m39 -12 c1 -7 0 -8 -3 -2 -2 5 -9 8 -14 4 -5 -3 -9 0 -9 6 0
15 23 7 26 -8z m2297 -15 c-5 -8 -8 -7 -11 1 -2 7 -9 9 -14 6 -7 -4 -8 -2 -4
4 4 6 13 9 21 6 8 -4 12 -11 8 -17z m-222 -10 c-10 -9 -11 -8 -5 6 3 10 9 15
12 12 3 -3 0 -11 -7 -18z m-531 -21 c0 -3 -4 -8 -10 -11 -5 -3 -10 -1 -10 4 0
6 5 11 10 11 6 0 10 -2 10 -4z m1030 -100 c-17 -17 -11 -29 8 -15 15 13 16 12
3 -3 -7 -10 -17 -15 -21 -13 -14 8 -7 42 7 42 10 0 10 -4 3 -11z m110 -142 c0
-8 -19 -13 -24 -6 -3 5 1 9 9 9 8 0 15 -2 15 -3z"/>
<path d="M19764 8539 c-3 -6 9 -25 27 -43 24 -22 28 -24 14 -6 -11 14 -24 28
-29 31 -5 4 -5 12 -2 18 4 6 5 11 2 11 -3 0 -8 -5 -12 -11z"/>
<path d="M19830 8456 c0 -2 8 -10 18 -17 15 -13 16 -12 3 4 -13 16 -21 21 -21
13z"/>
<path d="M19638 8283 c7 -3 16 -2 19 1 4 3 -2 6 -13 5 -11 0 -14 -3 -6 -6z"/>
<path d="M20960 8196 c0 -2 8 -10 18 -17 15 -13 16 -12 3 4 -13 16 -21 21 -21
13z"/>
<path d="M20870 8040 c-9 -6 -10 -10 -3 -10 6 0 15 5 18 10 8 12 4 12 -15 0z"/>
<path d="M18468 8453 c6 -2 18 -2 25 0 6 3 1 5 -13 5 -14 0 -19 -2 -12 -5z"/>
<path d="M20410 7589 c0 -5 5 -7 10 -4 6 3 10 8 10 11 0 2 -4 4 -10 4 -5 0
-10 -5 -10 -11z"/>
<path d="M19478 7508 c9 -9 15 -9 24 0 9 9 7 12 -12 12 -19 0 -21 -3 -12 -12z"/>
<path d="M13010 11585 c0 -142 1 -146 23 -154 12 -5 28 -6 35 -4 17 7 15 33
-3 33 -13 0 -15 22 -15 135 0 128 -1 135 -20 135 -19 0 -20 -7 -20 -145z"/>
<path d="M10474 11520 c0 -113 2 -159 3 -102 2 56 2 148 0 205 -1 56 -3 10 -3
-103z"/>
<path d="M12704 11705 c-4 -9 -2 -21 4 -27 15 -15 44 -1 40 19 -4 23 -36 29
-44 8z"/>
<path d="M8075 11639 c-33 -27 -65 -49 -71 -49 -6 0 -16 11 -22 24 -17 38 -51
54 -125 58 l-68 4 3 -121 3 -120 63 1 c69 2 108 21 127 62 5 12 14 22 19 22 4
0 36 -22 71 -49 l62 -49 61 49 c34 27 65 49 70 49 6 0 8 -17 5 -39 -5 -36 -3
-38 23 -43 16 -2 49 -4 74 -4 39 1 45 4 48 24 3 20 0 22 -47 22 l-51 0 0 95
c0 52 -4 95 -9 95 -5 0 -16 3 -25 6 -13 5 -16 -2 -16 -44 0 -52 -5 -59 -111
-140 -16 -12 -49 -7 -49 7 0 4 27 29 60 54 63 49 70 61 44 71 -10 4 -38 -11
-78 -43 -53 -43 -64 -47 -79 -36 -16 12 -13 16 35 55 29 23 59 44 66 47 17 7
15 16 -5 29 -15 9 -29 2 -78 -37z m-146 -35 c25 -32 27 -71 5 -102 -11 -16
-25 -22 -55 -22 l-39 0 0 75 0 75 34 0 c25 0 40 -7 55 -26z"/>
<path d="M8452 11556 l3 -121 70 0 c65 0 70 2 73 23 3 20 0 22 -47 22 l-51 0
0 99 0 99 -25 0 -26 0 3 -122z"/>
<path d="M8638 11663 l42 -4 0 -110 c0 -70 4 -109 11 -109 6 0 9 38 8 108 l-2
107 44 6 c29 4 11 6 -51 6 -52 0 -76 -2 -52 -4z"/>
<path d="M9093 11555 c0 -86 2 -103 6 -59 7 71 22 94 62 94 37 0 43 -13 41
-86 -2 -35 2 -65 8 -69 16 -10 13 127 -4 150 -15 21 -77 26 -84 7 -9 -27 -21
-9 -25 36 -2 26 -4 -7 -4 -73z"/>
<path d="M9600 11551 c0 -67 3 -120 8 -117 9 5 7 225 -2 233 -3 4 -6 -49 -6
-116z"/>
<path d="M10001 11644 c0 -11 3 -14 6 -6 3 7 2 16 -1 19 -3 4 -6 -2 -5 -13z"/>
<path d="M10664 11615 c-14 -14 -22 -30 -19 -35 9 -15 41 -12 55 5 11 13 40
21 40 11 0 -2 3 -11 6 -20 5 -12 -4 -17 -35 -22 -70 -11 -98 -86 -45 -120 22
-15 30 -16 62 -4 26 9 37 10 40 1 2 -7 9 -8 22 -1 16 9 18 19 13 92 -7 98 -19
118 -75 118 -28 0 -46 -7 -64 -25z m86 -110 c0 -18 -29 -47 -41 -40 -15 10
-10 43 8 54 20 11 33 6 33 -14z"/>
<path d="M10844 11627 c-3 -8 -3 -56 -2 -108 3 -86 5 -94 23 -94 18 0 21 8 25
72 3 40 10 77 17 84 23 23 33 -2 33 -82 0 -78 0 -79 25 -79 24 0 25 2 25 74 0
54 4 77 15 86 25 21 34 1 37 -80 3 -67 5 -75 23 -75 18 0 20 8 23 80 2 44 0
90 -3 102 -7 29 -48 40 -78 20 -19 -12 -24 -12 -35 -1 -16 17 -54 18 -70 2 -9
-9 -12 -9 -12 0 0 16 -39 15 -46 -1z"/>
<path d="M11152 11624 c-29 -20 -29 -54 -1 -54 12 0 27 7 34 17 7 9 19 14 29
10 30 -12 16 -33 -29 -45 -32 -8 -49 -20 -56 -36 -26 -56 23 -112 77 -88 14 7
35 10 48 6 28 -7 55 21 38 38 -7 7 -12 40 -12 74 0 44 -5 67 -16 78 -20 20
-83 21 -112 0z m78 -113 c0 -23 -28 -54 -41 -46 -15 10 -10 43 9 54 25 15 32
13 32 -8z"/>
<path d="M11323 11624 c-7 -20 5 -32 40 -36 l27 -3 -35 -52 c-19 -29 -35 -64
-35 -78 0 -23 3 -25 28 -18 34 9 59 9 95 -1 23 -7 27 -5 27 11 0 26 -19 43
-47 43 -30 0 -29 12 7 62 17 22 30 52 30 65 0 22 -3 23 -65 23 -50 0 -67 -4
-72 -16z"/>
<path d="M11514 11617 c-57 -49 -35 -176 32 -193 61 -15 107 40 101 120 -5 56
-39 96 -82 96 -13 0 -36 -10 -51 -23z m74 -76 c3 -59 -11 -89 -34 -70 -17 14
-19 100 -2 117 22 22 33 7 36 -47z"/>
<path d="M11678 11539 c-2 -56 0 -106 3 -111 4 -5 15 -8 25 -6 16 3 20 15 24
82 5 82 19 105 40 66 6 -12 10 -49 9 -83 -3 -60 -2 -62 22 -62 23 0 24 2 27
84 2 62 -1 89 -13 107 -17 26 -53 32 -74 12 -11 -10 -14 -10 -18 0 -3 6 -13
12 -23 12 -17 0 -19 -11 -22 -101z"/>
<path d="M11923 11625 c-47 -33 -30 -84 38 -112 65 -26 43 -69 -30 -57 -44 7
-56 -7 -22 -26 32 -17 85 -12 109 10 40 37 27 72 -39 106 -27 13 -49 29 -49
34 0 17 38 30 69 24 24 -5 31 -3 31 9 0 27 -73 36 -107 12z"/>
<path d="M12140 11630 c-8 -5 -25 -7 -37 -3 l-23 5 0 -147 c0 -134 1 -146 18
-143 13 2 18 15 20 49 l3 47 34 -11 c60 -18 105 29 105 109 0 41 -22 89 -45
98 -24 9 -58 7 -75 -4z m68 -48 c16 -21 16 -83 -1 -106 -9 -12 -23 -17 -47
-14 l-35 3 -3 63 c-3 57 -1 63 20 71 27 10 48 4 66 -17z"/>
<path d="M12333 11616 c-25 -22 -28 -31 -28 -86 0 -55 3 -64 28 -86 30 -26 83
-32 118 -14 31 17 23 33 -13 27 -52 -7 -97 16 -98 51 0 8 20 12 65 12 l65 0 0
40 c0 76 -77 108 -137 56z m83 -14 c6 -4 14 -17 18 -29 7 -22 5 -23 -43 -23
-55 0 -62 9 -31 40 21 21 38 25 56 12z"/>
<path d="M12560 11627 c-69 -35 -66 -162 4 -195 34 -17 96 -8 96 13 0 11 -12
15 -40 15 -51 0 -76 32 -67 87 7 43 20 53 70 53 25 0 37 5 37 14 0 27 -57 35
-100 13z"/>
<path d="M12818 11629 c-30 -17 -20 -31 20 -28 66 4 72 1 72 -30 0 -25 -3 -28
-25 -23 -37 7 -84 -16 -91 -45 -14 -55 39 -99 91 -75 13 6 32 8 44 5 20 -5 21
-2 21 85 0 83 -2 92 -22 106 -25 18 -84 21 -110 5z m92 -134 c0 -31 -43 -53
-66 -34 -30 24 -7 59 38 59 23 0 28 -4 28 -25z"/>
<path d="M13130 11620 c-36 -36 -20 -82 34 -100 46 -15 63 -35 46 -55 -10 -12
-24 -14 -57 -9 -34 5 -43 3 -43 -9 0 -28 82 -37 118 -11 15 11 22 25 22 49 0
31 -5 37 -50 60 -27 14 -50 32 -50 39 0 19 31 29 64 20 19 -4 26 -2 26 9 0 32
-80 37 -110 7z"/>
<path d="M12700 11530 l0 -100 25 0 25 0 0 100 0 100 -25 0 -25 0 0 -100z"/>
<path d="M8776 11586 c-53 -53 -21 -156 48 -156 19 0 40 8 49 18 27 29 20 35
-14 10 -28 -21 -32 -21 -56 -8 -14 8 -30 25 -34 38 -8 21 -7 22 56 22 65 0 65
0 65 28 0 33 -23 57 -62 67 -21 5 -33 1 -52 -19z m88 -18 c24 -34 20 -38 -39
-38 -48 0 -55 3 -55 20 0 41 69 54 94 18z"/>
<path d="M8963 11600 c-81 -32 -60 -170 26 -170 29 0 80 44 66 57 -4 5 -10 2
-12 -5 -26 -71 -113 -44 -113 36 0 66 70 99 104 50 9 -12 18 -19 21 -16 9 8
-28 46 -50 51 -11 3 -30 2 -42 -3z"/>
<path d="M9304 11596 c-13 -10 -23 -11 -31 -4 -10 8 -13 -8 -13 -76 0 -51 4
-86 10 -86 6 0 10 29 10 68 0 74 10 92 50 92 40 0 50 -18 50 -93 0 -47 3 -66
11 -61 7 4 9 30 6 72 -4 53 -9 69 -27 84 -27 22 -40 22 -66 4z"/>
<path d="M9851 11593 c-28 -23 -40 -70 -29 -110 13 -50 52 -63 109 -39 13 6
16 2 11 -19 -9 -51 -68 -66 -99 -26 -7 10 -12 11 -13 4 0 -20 30 -43 59 -43
51 0 66 30 69 144 2 65 0 96 -6 87 -8 -11 -14 -11 -33 3 -30 20 -42 20 -68 -1z
m79 -22 c5 -11 10 -38 10 -60 0 -40 -25 -71 -57 -71 -45 0 -69 83 -37 128 20
28 69 30 84 3z"/>
<path d="M10083 11596 c-75 -34 -46 -166 38 -166 25 0 59 27 59 46 0 5 -6 1
-13 -8 -22 -28 -62 -33 -86 -9 -37 37 -28 50 41 53 75 4 86 22 40 68 -34 34
-36 34 -79 16z m71 -22 c31 -31 20 -44 -39 -44 -57 0 -63 6 -45 41 13 23 62
26 84 3z"/>
<path d="M10232 11594 c-37 -25 -25 -56 28 -75 33 -12 46 -23 48 -39 7 -42
-44 -54 -78 -18 -11 12 -20 17 -20 11 0 -21 31 -43 60 -43 33 0 60 23 60 50 0
22 -31 44 -73 54 -22 5 -28 12 -25 29 4 29 56 37 75 11 12 -17 13 -17 13 -1 0
10 -12 22 -26 27 -33 13 -36 13 -62 -6z"/>
<path d="M9454 11592 c-40 -26 -45 -102 -9 -137 71 -72 168 38 104 119 -20 26
-69 36 -95 18z m78 -19 c27 -24 25 -97 -4 -117 -47 -33 -88 -6 -88 57 0 67 49
99 92 60z"/>
<path d="M9664 11579 c-29 -32 -26 -105 5 -130 31 -25 75 -24 101 3 25 27 27
93 4 126 -21 30 -83 31 -110 1z m95 -2 c28 -35 21 -107 -13 -129 -57 -38 -113
59 -70 120 17 25 65 30 83 9z"/>
<path d="M10004 11515 c0 -49 1 -71 3 -48 2 23 2 64 0 90 -2 26 -3 8 -3 -42z"/>
<path d="M11340 11407 c-24 -10 -23 -11 20 -16 48 -6 49 -9 35 -66 -8 -27 -7
-29 8 -16 9 7 22 31 29 53 10 33 9 41 -3 49 -19 12 -58 10 -89 -4z"/>
<path d="M10812 11399 c3 -8 23 -28 46 -46 123 -94 331 -109 467 -34 48 26 78
62 39 47 -59 -23 -177 -46 -239 -46 -87 0 -212 30 -273 66 -27 16 -43 21 -40
13z"/>
<path d="M17785 11388 c-4 -12 -18 -181 -65 -790 -11 -136 -17 -254 -14 -263
3 -8 25 -20 48 -26 22 -6 57 -15 76 -20 19 -5 117 -27 216 -49 100 -22 188
-42 195 -45 8 -2 25 -6 39 -9 45 -8 534 -118 585 -132 28 -7 163 -38 300 -69
138 -31 257 -58 265 -60 27 -8 40 10 45 61 2 27 14 260 26 517 19 403 20 470
8 481 -13 12 -306 87 -338 86 -26 0 31 -50 58 -51 14 0 20 -3 14 -6 -25 -9
-13 -23 21 -23 68 0 96 -11 96 -36 0 -13 6 -24 13 -24 13 0 31 -31 61 -105 10
-22 24 -52 32 -68 8 -15 12 -32 9 -37 -4 -6 -2 -16 3 -23 27 -35 17 -206 -17
-279 -12 -27 -24 -48 -27 -48 -4 0 -4 6 -1 14 4 10 0 12 -15 8 -16 -4 -19 -2
-13 8 6 10 4 12 -8 7 -9 -3 -18 0 -21 9 -3 8 -21 24 -40 35 -22 13 -33 26 -29
35 3 7 -2 16 -10 20 -9 3 -20 19 -26 36 -14 39 -14 51 -1 43 6 -3 10 -1 10 4
0 6 -11 11 -25 11 -20 0 -25 5 -25 25 0 17 -8 29 -25 37 -16 7 -25 19 -25 33
0 12 -9 30 -20 40 -11 10 -20 29 -20 42 0 13 -7 26 -16 30 -8 3 -20 17 -25 32
-8 21 -12 23 -21 11 -8 -13 -9 -12 -5 2 7 19 -24 88 -47 108 -9 7 -16 23 -16
35 0 13 -6 25 -12 28 -10 3 -10 7 0 19 9 12 10 18 2 23 -7 4 -9 17 -6 30 6 22
-1 25 -272 90 -152 36 -416 100 -585 141 -169 41 -317 74 -328 74 -11 0 -22
-6 -24 -12z m633 -238 c2 -14 22 -43 43 -64 44 -45 47 -58 19 -77 -11 -8 -21
-23 -23 -34 -2 -11 -6 -27 -9 -35 -3 -8 -14 -43 -25 -77 -11 -34 -16 -60 -11
-57 16 10 8 -9 -9 -21 -15 -11 -15 -18 -5 -51 7 -25 8 -42 2 -48 -12 -12 -13
-52 -2 -59 4 -2 1 -2 -7 0 -9 2 -12 -3 -8 -17 3 -11 1 -18 -4 -14 -5 3 -9 -4
-9 -15 0 -13 -7 -21 -17 -22 -12 0 -13 -2 -5 -6 7 -3 19 1 27 7 9 7 15 8 15 2
0 -10 -29 -26 -42 -24 -4 1 -5 -5 -2 -12 3 -8 -4 -19 -16 -26 -15 -8 -19 -17
-15 -31 4 -10 2 -19 -4 -19 -14 0 -61 -52 -61 -67 0 -7 8 -22 17 -32 23 -27
25 -51 6 -70 -15 -15 -16 -14 -11 6 4 13 1 24 -7 27 -8 3 -11 13 -8 25 3 12 1
21 -6 21 -5 0 -8 6 -5 14 3 7 -2 16 -10 19 -9 4 -16 17 -16 29 0 18 -5 14 -19
-17 -10 -22 -25 -46 -34 -54 -10 -7 -17 -19 -17 -26 0 -17 -30 -28 -34 -12
-29 103 -48 198 -71 352 -9 61 -20 133 -25 160 -5 28 -11 75 -15 106 l-6 57
66 7 c36 4 101 6 143 5 139 -4 258 1 237 9 -10 4 -44 9 -75 10 -30 1 -59 6
-64 12 -28 27 3 119 39 119 7 0 18 7 25 15 20 24 54 15 58 -15z m409 -41 c17
-11 36 -34 42 -51 15 -42 14 -46 -9 -50 -27 -4 -28 -20 -3 -33 27 -14 53 -41
46 -48 -6 -6 -56 0 -83 10 -16 6 -27 9 -48 11 -10 2 -12 13 -7 45 6 39 5 43
-17 44 -38 3 -67 24 -70 52 -3 23 2 27 37 37 45 13 66 10 112 -17z m81 -230
c57 -5 107 -11 113 -14 5 -4 9 -40 9 -81 l0 -74 -74 0 c-81 0 -86 3 -128 80
-21 38 -33 32 -59 -27 l-19 -46 -73 7 -72 7 43 -32 c25 -18 42 -38 40 -47 -4
-19 -89 -48 -113 -38 -14 5 -15 15 -9 63 4 32 10 60 14 63 4 3 3 36 -3 74 -8
55 -7 70 4 77 14 10 138 5 327 -12z m-78 -121 c7 -12 6 -16 -6 -14 -20 3 -37
32 -28 47 7 11 12 6 34 -33z m-819 -98 c20 -28 64 -305 53 -334 -8 -21 -40
-21 -48 0 -4 9 -9 14 -13 11 -9 -9 -57 71 -70 118 -15 49 -19 151 -8 185 17
57 54 65 86 20z m-234 -22 c-3 -7 -5 -2 -5 12 0 14 2 19 5 13 2 -7 2 -19 0
-25z m10 -70 c-2 -13 -4 -5 -4 17 -1 22 1 32 4 23 2 -10 2 -28 0 -40z m10 -75
c-3 -10 -5 -2 -5 17 0 19 2 27 5 18 2 -10 2 -26 0 -35z m1467 5 c-7 -11 -32
-10 -39 2 -3 6 4 9 19 8 13 -1 22 -6 20 -10z m-24 -28 c0 -5 -4 -10 -9 -10 -6
0 -13 5 -16 10 -3 6 1 10 9 10 9 0 16 -4 16 -10z m-1433 -57 c-3 -10 -5 -2 -5
17 0 19 2 27 5 18 2 -10 2 -26 0 -35z m604 24 c-13 -13 -26 -3 -16 12 3 6 11
8 17 5 6 -4 6 -10 -1 -17z m1006 -73 c-7 -7 -37 7 -37 17 0 6 9 5 21 -1 11 -7
19 -14 16 -16z m-1100 -150 c-3 -3 -12 -4 -19 -1 -8 3 -5 6 6 6 11 1 17 -2 13
-5z"/>
<path d="M18588 10879 c-6 -4 -7 -25 -3 -55 12 -80 16 -84 93 -84 l68 0 22 45
c12 25 28 45 35 45 7 0 26 -22 42 -49 28 -50 29 -50 92 -57 39 -4 68 -3 74 3
6 6 9 37 7 69 l-3 59 -65 7 c-108 12 -351 24 -362 17z"/>
<path d="M16986 10878 c3 -4 12 -8 20 -8 8 0 14 4 14 8 0 4 -9 8 -19 8 -11 0
-17 -4 -15 -8z"/>
<path d="M17040 10870 c19 -13 30 -13 30 0 0 6 -10 10 -22 10 -19 0 -20 -2 -8
-10z"/>
<path d="M8780 10628 c0 -156 1 -169 21 -189 14 -14 30 -19 52 -17 27 2 33 8
35 31 3 22 -1 27 -17 27 -20 0 -21 5 -21 158 l0 157 -35 0 -35 0 0 -167z"/>
<path d="M10622 10777 c-13 -14 -22 -36 -22 -55 0 -21 -6 -35 -20 -42 -25 -14
-26 -46 -1 -53 17 -4 19 -14 20 -83 0 -44 0 -89 0 -100 1 -18 7 -21 34 -20
l32 2 3 102 3 102 34 0 c31 0 35 3 35 25 0 22 -4 25 -35 25 -32 0 -35 2 -35
30 0 30 9 35 53 32 13 -1 17 6 17 28 0 29 -1 30 -48 30 -38 0 -53 -5 -70 -23z"/>
<path d="M12410 10734 l0 -63 -31 11 c-22 8 -41 7 -70 -1 -50 -15 -73 -56 -73
-133 -1 -95 52 -143 134 -122 21 6 44 8 50 4 6 -4 22 -5 36 -2 l24 4 0 178 0
178 -35 4 -35 4 0 -62z m-2 -177 c3 -65 2 -67 -24 -77 -36 -14 -74 10 -75 48
-4 79 11 104 59 100 l37 -3 3 -68z"/>
<path d="M12553 10793 c-7 -2 -13 -18 -13 -34 0 -22 6 -30 25 -35 29 -7 55 10
55 35 0 33 -32 49 -67 34z"/>
<path d="M12937 10773 c-9 -8 -9 -80 -1 -110 4 -16 14 -23 30 -23 23 0 24 3
24 70 0 67 -1 70 -23 70 -13 0 -27 -3 -30 -7z"/>
<path d="M7790 10740 c0 -30 1 -30 55 -30 l55 0 0 -143 0 -144 35 1 35 1 0
142 0 143 55 0 c54 0 55 0 55 30 l0 30 -145 0 -145 0 0 -30z"/>
<path d="M11810 10601 c0 -94 3 -172 8 -174 4 -3 22 -2 40 0 l32 5 0 169 0
169 -40 0 -40 0 0 -169z"/>
<path d="M9504 10715 c-4 -21 -13 -37 -25 -40 -24 -8 -25 -41 0 -48 15 -4 18
-16 20 -82 1 -43 7 -87 12 -97 12 -23 49 -32 94 -24 29 6 35 11 35 31 0 22 -5
25 -35 25 l-35 0 0 75 0 75 35 0 c31 0 35 3 35 25 0 22 -4 25 -35 25 -33 0
-35 2 -35 35 0 32 -2 35 -30 35 -25 0 -30 -4 -36 -35z"/>
<path d="M16958 10723 c7 -3 16 -2 19 1 4 3 -2 6 -13 5 -11 0 -14 -3 -6 -6z"/>
<path d="M17041 10714 c0 -11 3 -14 6 -6 3 7 2 16 -1 19 -3 4 -6 -2 -5 -13z"/>
<path d="M17140 10689 c0 -5 5 -7 10 -4 6 3 10 8 10 11 0 2 -4 4 -10 4 -5 0
-10 -5 -10 -11z"/>
<path d="M8133 10676 c-41 -18 -63 -62 -63 -123 0 -53 25 -104 61 -123 13 -7
45 -10 77 -8 44 4 60 10 78 32 45 52 43 144 -4 197 -33 37 -98 48 -149 25z
m105 -79 c23 -48 -3 -127 -42 -127 -46 0 -73 88 -42 135 23 35 66 31 84 -8z"/>
<path d="M8458 10674 c-16 -8 -28 -10 -28 -4 0 11 -60 14 -60 3 -1 -23 -1
-330 -1 -340 1 -8 15 -13 36 -13 l35 0 0 59 0 58 41 -11 c46 -12 79 1 111 45
23 31 27 112 8 158 -22 55 -87 75 -142 45z m72 -63 c11 -22 13 -80 4 -106 -8
-21 -45 -35 -73 -28 -19 5 -21 13 -21 72 0 37 3 71 7 74 15 16 72 7 83 -12z"/>
<path d="M8968 10678 c-30 -8 -38 -15 -38 -33 0 -22 2 -23 61 -18 64 6 79 -1
79 -39 0 -15 -9 -18 -53 -18 -73 0 -97 -19 -97 -75 0 -34 5 -47 22 -59 26 -18
71 -21 99 -5 12 6 25 7 32 1 18 -13 57 -12 58 1 0 7 0 57 -1 112 -1 83 -4 103
-19 119 -23 22 -91 29 -143 14z m102 -166 c0 -10 -5 -23 -12 -30 -18 -18 -65
-15 -72 4 -10 25 12 44 50 44 26 0 34 -4 34 -18z"/>
<path d="M9285 10675 c-19 -10 -31 -12 -33 -6 -2 6 -17 11 -33 11 l-29 0 0
-180 0 -180 35 0 35 0 0 61 c0 54 2 60 18 54 65 -29 123 -9 148 50 25 61 12
150 -29 183 -25 21 -79 24 -112 7z m64 -58 c18 -23 24 -75 11 -106 -13 -32
-34 -41 -74 -34 -25 5 -26 8 -26 73 0 45 4 70 13 73 24 10 65 7 76 -6z"/>
<path d="M9735 10680 c-42 -17 -68 -58 -73 -113 -8 -94 39 -147 130 -147 75 0
118 50 118 137 0 65 -28 109 -77 122 -44 13 -70 13 -98 1z m89 -72 c41 -58 -1
-154 -57 -132 -35 13 -45 106 -15 141 16 20 55 15 72 -9z"/>
<path d="M10053 10676 c-18 -8 -33 -11 -33 -6 0 6 -13 10 -30 10 l-30 0 0
-180 0 -180 35 0 35 0 0 59 0 60 30 -11 c91 -31 164 49 145 160 -13 81 -81
120 -152 88z m66 -60 c13 -16 17 -81 7 -113 -8 -24 -39 -35 -73 -27 -21 6 -23
12 -23 73 0 37 3 71 7 74 12 13 70 7 82 -7z"/>
<path d="M10272 10670 c-30 -19 -33 -24 -30 -63 3 -40 5 -43 58 -69 37 -18 55
-33 55 -45 0 -16 -8 -18 -57 -16 -55 2 -58 1 -58 -22 0 -20 7 -25 36 -31 51
-9 116 2 132 23 39 54 19 101 -58 134 -28 12 -50 25 -50 30 0 18 37 28 73 19
36 -8 37 -7 37 20 0 23 -5 29 -31 34 -51 10 -72 7 -107 -14z"/>
<path d="M11025 10682 c-74 -25 -106 -113 -71 -197 18 -41 61 -65 118 -65 75
0 118 50 118 137 0 65 -28 109 -77 122 -42 12 -58 12 -88 3z m79 -74 c41 -58
-1 -154 -57 -132 -35 13 -45 106 -15 141 16 20 55 15 72 -9z"/>
<path d="M11335 10673 c-20 -11 -30 -12 -33 -4 -2 6 -17 11 -33 11 l-29 0 0
-127 0 -128 35 0 35 0 0 96 c0 103 3 109 55 109 27 0 34 -19 34 -105 0 -109
-2 -103 34 -101 l32 1 5 100 5 100 33 3 c40 4 50 -17 50 -104 1 -109 -1 -102
35 -100 l32 2 3 107 c3 103 2 108 -22 132 -29 29 -64 32 -112 9 -30 -14 -35
-14 -56 0 -28 20 -65 20 -103 -1z"/>
<path d="M12050 10674 c-22 -10 -36 -11 -38 -4 -2 5 -17 10 -33 10 l-30 0 3
-127 3 -127 33 -2 32 -2 0 98 c0 105 3 110 56 110 32 0 46 -36 44 -110 -3
-100 -4 -98 33 -96 l32 2 3 107 c3 103 2 108 -22 132 -29 29 -64 31 -116 9z"/>
<path d="M12713 10679 c-24 -7 -33 -15 -33 -32 0 -21 4 -22 63 -22 60 0 62 -1
65 -27 3 -28 2 -28 -52 -28 -47 0 -57 -4 -75 -26 -44 -56 -14 -124 55 -124 19
0 45 5 56 11 13 7 24 7 30 1 5 -5 20 -7 34 -4 l26 5 -4 108 c-2 81 -7 112 -19
124 -19 19 -103 28 -146 14z m95 -176 c-2 -23 -8 -29 -36 -31 -22 -2 -34 2
-38 12 -11 29 4 46 41 46 34 0 36 -2 33 -27z"/>
<path d="M13058 10674 c-29 -15 -42 -46 -36 -85 2 -18 18 -31 58 -51 37 -18
55 -33 55 -45 0 -16 -8 -18 -57 -16 -55 2 -58 1 -58 -21 0 -29 16 -36 81 -36
60 0 95 21 104 61 9 40 -14 73 -69 97 -24 11 -46 25 -50 30 -11 17 28 32 68
25 33 -5 36 -4 36 19 0 21 -6 27 -31 32 -47 9 -71 7 -101 -10z"/>
<path d="M10762 10553 l3 -128 33 0 32 0 1 70 c1 39 1 78 0 88 -2 19 34 37 75
37 20 0 24 5 24 30 0 24 -4 30 -22 30 -13 0 -35 -7 -50 -14 -24 -13 -28 -13
-28 0 0 9 -11 14 -35 14 l-36 0 3 -127z"/>
<path d="M12542 10553 c3 -121 4 -128 23 -127 53 2 50 -4 48 126 l-2 123 -36
3 -36 3 3 -128z"/>
<path d="M17265 10660 c3 -5 8 -10 11 -10 2 0 4 5 4 10 0 6 -5 10 -11 10 -5 0
-7 -4 -4 -10z"/>
<path d="M16765 10590 c3 -5 8 -10 11 -10 2 0 4 5 4 10 0 6 -5 10 -11 10 -5 0
-7 -4 -4 -10z"/>
<path d="M16857 10569 c7 -7 15 -10 18 -7 3 3 -2 9 -12 12 -14 6 -15 5 -6 -5z"/>
<path d="M16900 10560 c0 -6 7 -10 15 -10 8 0 15 2 15 4 0 2 -7 6 -15 10 -8 3
-15 1 -15 -4z"/>
<path d="M17020 10536 c0 -2 7 -6 15 -10 8 -3 15 -1 15 4 0 6 -7 10 -15 10 -8
0 -15 -2 -15 -4z"/>
<path d="M17261 10508 c-17 -43 31 -85 64 -58 18 15 19 52 3 68 -20 20 -58 14
-67 -10z m49 -18 c0 -11 -7 -20 -15 -20 -17 0 -18 2 -9 24 9 23 24 20 24 -4z"/>
<path d="M16930 10410 c0 -5 5 -10 11 -10 5 0 7 5 4 10 -3 6 -8 10 -11 10 -2
0 -4 -4 -4 -10z"/>
<path d="M16756 10242 c-3 -5 1 -9 9 -9 8 0 15 4 15 9 0 4 -4 8 -9 8 -6 0 -12
-4 -15 -8z"/>
<path d="M17701 10234 c0 -11 3 -14 6 -6 3 7 2 16 -1 19 -3 4 -6 -2 -5 -13z"/>
<path d="M16800 10229 c0 -5 5 -7 10 -4 6 3 10 8 10 11 0 2 -4 4 -10 4 -5 0
-10 -5 -10 -11z"/>
<path d="M17731 10224 c0 -11 3 -14 6 -6 3 7 2 16 -1 19 -3 4 -6 -2 -5 -13z"/>
<path d="M12190 10196 c0 -34 0 -34 -30 -23 -25 10 -33 9 -40 -3 -15 -24 -12
-30 20 -36 35 -7 38 -23 10 -49 -15 -14 -17 -21 -9 -32 18 -21 33 -15 52 19
l18 32 19 -32 c11 -18 27 -32 35 -32 26 0 29 29 6 54 -27 29 -27 34 7 38 19 2
27 9 27 23 0 21 -23 25 -58 10 -17 -7 -18 -4 -12 29 7 34 6 36 -19 36 -23 0
-26 -4 -26 -34z"/>
<path d="M17767 10223 c-4 -3 -7 -11 -7 -17 0 -6 5 -5 12 2 6 6 9 14 7 17 -3
3 -9 2 -12 -2z"/>
<path d="M17797 10223 c-10 -9 -9 -23 1 -23 5 0 9 7 9 15 0 17 -1 18 -10 8z"/>
<path d="M17901 10194 c0 -11 3 -14 6 -6 3 7 2 16 -1 19 -3 4 -6 -2 -5 -13z"/>
<path d="M10549 10186 c0 -6 0 -35 1 -65 1 -46 -1 -53 -15 -47 -68 26 -127 7
-150 -48 -44 -105 13 -217 102 -202 21 4 59 6 86 6 l47 -1 -2 182 -3 182 -32
2 c-18 1 -33 -3 -34 -9z m-4 -179 c4 -13 5 -46 3 -73 -3 -48 -3 -49 -39 -52
-46 -4 -64 17 -64 73 0 53 18 75 61 75 27 0 35 -5 39 -23z"/>
<path d="M10823 10193 c-23 -4 -23 -6 -23 -183 l0 -178 24 -4 c14 -3 29 -1 34
4 5 5 20 4 36 -2 48 -18 76 -12 112 24 31 31 34 39 34 95 0 35 -6 74 -15 91
-19 37 -73 56 -117 41 -17 -6 -32 -11 -34 -11 -2 0 -4 28 -6 62 -3 63 -7 68
-45 61z m137 -182 c24 -46 6 -127 -30 -131 -57 -8 -60 -4 -60 68 0 38 3 72 7
75 15 16 72 7 83 -12z"/>
<path d="M17931 10188 c-1 -20 14 -24 25 -6 4 6 3 8 -4 4 -5 -3 -13 0 -15 6
-3 8 -6 6 -6 -4z"/>
<path d="M12000 10131 l0 -60 -32 10 c-46 13 -83 2 -113 -33 -21 -25 -25 -40
-25 -91 0 -80 24 -123 74 -133 20 -3 48 -2 63 3 16 6 45 8 66 5 l37 -4 0 181
0 181 -35 0 -35 0 0 -59z m0 -176 c0 -71 -1 -75 -22 -76 -59 -3 -78 15 -78 74
0 59 14 77 60 77 l40 0 0 -75z"/>
<path d="M17046 10173 c-6 -14 -5 -15 5 -6 7 7 10 15 7 18 -3 3 -9 -2 -12 -12z"/>
<path d="M17237 10183 c-12 -12 -7 -60 7 -73 8 -6 25 -10 38 -8 27 4 37 50 17
74 -12 14 -50 19 -62 7z m52 -55 c1 -3 -8 -4 -19 -1 -17 4 -18 8 -8 26 11 21
11 21 19 2 4 -11 8 -23 8 -27z"/>
<path d="M17971 10174 c0 -11 3 -14 6 -6 3 7 2 16 -1 19 -3 4 -6 -2 -5 -13z"/>
<path d="M17120 10176 c0 -3 9 -10 20 -16 11 -6 20 -8 20 -6 0 3 -9 10 -20 16
-11 6 -20 8 -20 6z"/>
<path d="M18017 10173 c-11 -11 -8 -20 7 -20 8 0 12 6 9 14 -6 15 -7 15 -16 6z"/>
<path d="M18051 10158 c-1 -12 6 -18 19 -18 11 0 20 5 20 11 0 6 -6 9 -14 6
-8 -3 -17 -1 -20 6 -2 7 -5 4 -5 -5z"/>
<path d="M8778 10118 c-2 -23 -10 -36 -25 -43 -29 -12 -31 -45 -3 -45 18 0 20
-7 20 -80 0 -73 3 -83 25 -105 16 -17 35 -25 57 -25 40 0 55 9 60 35 2 16 -3
21 -29 23 -29 3 -32 7 -38 46 -4 23 -5 55 -3 72 3 25 8 29 36 32 26 3 32 7 32
28 0 21 -5 24 -35 24 -33 0 -35 2 -35 35 0 32 -2 35 -29 35 -26 0 -30 -4 -33
-32z"/>
<path d="M9087 10143 c-4 -3 -7 -19 -7 -34 0 -18 -6 -30 -19 -34 -28 -8 -35
-36 -12 -42 16 -4 19 -17 23 -90 4 -74 8 -89 27 -105 23 -18 74 -24 105 -12 9
3 16 17 16 30 0 21 -5 24 -35 24 l-35 0 0 75 0 75 28 0 c35 0 41 6 35 31 -4
13 -14 19 -34 19 -26 0 -29 3 -29 35 0 32 -3 35 -28 35 -16 0 -32 -3 -35 -7z"/>
<path d="M9960 10126 c0 -24 -23 -56 -41 -56 -5 0 -9 -9 -9 -20 0 -13 7 -20
20 -20 18 0 20 -7 20 -82 0 -89 3 -99 37 -117 46 -24 103 -11 103 24 0 19 -6
24 -32 27 l-33 3 -3 73 -3 72 36 0 c31 0 35 3 35 25 0 22 -4 25 -35 25 -33 0
-35 2 -35 35 0 32 -2 35 -30 35 -25 0 -30 -4 -30 -24z"/>
<path d="M7920 10074 c-22 -10 -36 -11 -38 -4 -2 5 -17 10 -33 10 l-29 0 0
-125 c0 -117 1 -125 19 -125 11 0 26 -3 35 -6 14 -5 16 7 16 95 0 98 1 101 24
107 56 14 61 7 64 -98 l3 -96 29 -4 c17 -3 32 -2 35 0 3 3 5 47 5 98 0 98 3
104 55 104 30 0 35 -16 35 -118 l0 -87 35 -1 35 -1 0 109 c0 102 -1 110 -25
133 -28 29 -51 31 -100 11 -30 -13 -38 -13 -62 -1 -35 19 -59 18 -103 -1z"/>
<path d="M8324 10076 c-47 -21 -64 -52 -64 -118 0 -31 5 -68 11 -81 15 -33 60
-57 109 -57 83 0 126 48 124 142 -1 56 -24 95 -69 114 -42 17 -71 17 -111 0z
m96 -65 c16 -31 12 -102 -7 -123 -21 -23 -38 -23 -63 2 -25 25 -28 101 -4 124
21 22 61 20 74 -3z"/>
<path d="M8594 10083 c-36 -7 -56 -37 -52 -80 3 -35 7 -40 58 -65 37 -18 55
-33 55 -45 0 -16 -8 -18 -62 -16 -59 3 -61 2 -55 -20 7 -31 20 -37 75 -37 64
0 104 21 112 60 9 43 -14 75 -75 101 -72 31 -64 54 17 50 39 -1 43 1 43 23 0
31 -47 43 -116 29z"/>
<path d="M9753 10076 c-25 -11 -33 -23 -39 -51 -8 -44 17 -75 76 -95 41 -14
53 -29 40 -50 -6 -9 -23 -11 -64 -6 -52 7 -56 6 -56 -13 0 -28 29 -41 88 -41
71 0 104 28 100 84 -3 39 -6 42 -60 69 -84 40 -78 63 15 58 31 -2 37 0 37 18
0 25 -8 30 -62 36 -26 3 -55 0 -75 -9z"/>
<path d="M10183 10075 c-59 -25 -84 -95 -63 -173 14 -54 56 -82 120 -82 68 0
90 9 90 35 0 21 -4 22 -61 21 -49 -1 -63 3 -75 18 -28 39 -19 46 66 46 l80 0
0 35 c0 51 -24 91 -61 104 -41 14 -57 13 -96 -4z m73 -43 c6 -4 14 -17 18 -29
7 -22 5 -23 -43 -23 -55 0 -62 9 -31 40 21 21 38 25 56 12z"/>
<path d="M11320 10077 c-24 -8 -35 -18 -35 -32 0 -17 7 -19 65 -20 64 0 65 -1
68 -28 3 -25 0 -28 -20 -27 -87 7 -128 -17 -128 -75 0 -64 55 -92 127 -64 15
5 29 6 31 1 1 -4 16 -6 32 -4 l30 4 0 88 c0 48 -5 101 -11 118 -17 48 -83 64
-159 39z m100 -171 c0 -25 -16 -36 -56 -36 -18 0 -24 5 -24 23 0 31 7 37 47
37 28 0 33 -3 33 -24z"/>
<path d="M11651 10074 c-24 -10 -38 -11 -45 -4 -5 5 -23 10 -38 10 l-28 0 0
-124 0 -124 35 -4 35 -4 0 91 c0 98 7 115 50 115 43 0 50 -17 50 -112 l0 -88
35 0 35 0 0 105 c0 99 -2 107 -25 130 -27 28 -55 31 -104 9z"/>
<path d="M9250 9956 l0 -124 30 -4 c17 -3 32 -2 35 0 3 3 5 43 5 88 0 92 8
104 68 104 26 0 28 3 24 30 -5 34 -34 41 -68 15 -25 -19 -34 -19 -34 0 0 10
-10 15 -30 15 l-30 0 0 -124z"/>
<path d="M9440 9972 c0 -129 10 -152 68 -152 20 0 50 7 65 15 22 11 29 12 33
1 3 -8 16 -11 34 -8 l30 4 0 124 0 124 -35 0 -34 0 -3 -97 c-3 -96 -3 -96 -31
-106 -48 -15 -57 3 -57 109 l0 94 -35 0 -35 0 0 -108z"/>
<path d="M11090 9952 l0 -129 35 1 35 1 0 91 c0 99 3 103 68 104 18 0 22 6 22
30 0 25 -4 30 -23 30 -13 0 -32 -7 -43 -15 -25 -19 -34 -19 -34 0 0 10 -10 15
-30 15 l-30 0 0 -128z"/>
<path d="M18843 9495 c0 -22 2 -30 4 -17 2 12 2 30 0 40 -3 9 -5 -1 -4 -23z"/>
<path d="M16747 9507 c-11 -29 -9 -43 4 -30 6 6 9 19 7 29 -3 18 -4 18 -11 1z"/>
<path d="M16805 9446 c-3 -9 -7 -23 -10 -31 -9 -30 18 -62 28 -32 2 6 3 4 1
-6 -5 -36 18 -65 29 -34 2 6 3 4 1 -6 -3 -23 5 -47 16 -47 14 0 22 58 11 77
-6 10 -11 14 -12 8 0 -5 -4 1 -8 15 -4 14 -13 24 -19 23 -7 -2 -12 6 -12 16 0
25 -19 37 -25 17z"/>
<path d="M18298 9374 c-10 -10 0 -24 18 -24 8 0 14 8 14 18 0 13 -2 14 -9 3
-6 -9 -10 -10 -12 -2 -3 7 -8 9 -11 5z"/>
<path d="M16891 9309 c-12 -34 -5 -53 28 -83 20 -18 21 -18 31 9 8 20 7 31 -2
42 -11 13 -14 12 -25 -13 -14 -33 -18 -17 -4 18 6 16 5 29 -4 41 -12 16 -14
15 -24 -14z"/>
<path d="M18450 9331 c0 -5 7 -11 15 -15 8 -3 15 -1 15 3 0 5 -7 11 -15 15 -8
3 -15 1 -15 -3z"/>
<path d="M8886 9315 c-13 -35 21 -63 55 -45 20 11 23 19 13 44 -8 20 -60 21
-68 1z"/>
<path d="M9690 9321 c0 -6 17 -11 37 -13 52 -4 56 -28 4 -28 -23 0 -41 -4 -41
-10 0 -5 19 -10 41 -10 36 0 40 -2 29 -15 -7 -8 -25 -15 -41 -15 -38 0 -37
-12 7 -60 25 -27 45 -40 62 -40 26 0 26 0 -13 40 -21 22 -34 40 -27 40 7 0 28
15 48 34 28 27 32 35 20 39 -20 8 -21 27 -2 27 8 0 18 5 21 10 4 6 -22 10 -69
10 -42 0 -76 -4 -76 -9z"/>
<path d="M18537 9323 c-13 -12 -7 -23 13 -23 11 0 20 7 20 15 0 15 -21 21 -33
8z"/>
<path d="M7855 9305 c-41 -22 -55 -43 -55 -85 0 -47 29 -75 112 -110 57 -23
63 -28 63 -55 0 -50 -65 -66 -157 -39 -14 4 -18 -1 -18 -20 0 -20 7 -27 38
-35 73 -21 135 -10 180 31 17 17 22 33 22 70 0 55 -12 66 -114 108 -71 29 -85
57 -42 86 20 13 38 15 81 9 54 -6 55 -6 55 18 0 19 -6 26 -31 31 -52 10 -102
7 -134 -9z"/>
<path d="M10614 9310 c-64 -26 -88 -137 -40 -185 32 -32 71 -41 120 -27 23 6
42 9 43 8 9 -8 -22 -78 -40 -91 -25 -17 -74 -20 -111 -5 -24 9 -26 7 -26 -15
0 -20 7 -26 42 -35 137 -37 233 99 187 264 -17 61 -58 96 -111 95 -24 0 -53
-4 -64 -9z m106 -72 c24 -40 26 -84 4 -92 -29 -11 -77 -6 -96 11 -21 19 -24
77 -5 98 6 8 27 14 45 15 26 0 36 -6 52 -32z"/>
<path d="M10900 9313 c-8 -3 -27 -17 -42 -31 -24 -22 -28 -34 -28 -79 0 -44 5
-59 24 -78 32 -32 67 -40 118 -27 23 6 43 10 44 9 8 -8 -13 -61 -32 -82 -25
-27 -71 -33 -118 -15 -24 9 -26 7 -26 -15 0 -20 7 -26 42 -35 112 -31 198 50
198 185 0 56 -17 110 -44 141 -17 21 -33 27 -72 30 -27 2 -56 1 -64 -3z m95
-66 c8 -13 18 -37 21 -54 5 -25 2 -33 -14 -42 -28 -15 -73 -13 -95 4 -23 16
-26 76 -5 99 21 24 75 20 93 -7z"/>
<path d="M11178 9305 c-38 -21 -60 -68 -66 -142 -9 -117 32 -193 113 -209 46
-8 104 21 129 65 16 27 20 53 20 115 0 85 -13 124 -53 160 -28 25 -107 31
-143 11z m115 -66 c26 -35 28 -166 3 -204 -19 -30 -56 -41 -85 -26 -43 23 -55
178 -17 235 23 36 70 33 99 -5z"/>
<path d="M9870 9290 c0 -18 7 -20 70 -20 39 0 70 -4 70 -8 0 -4 -22 -30 -50
-57 -65 -64 -66 -85 -5 -85 32 0 51 -6 65 -20 26 -26 25 -41 -2 -75 -20 -25
-26 -27 -72 -22 -28 3 -59 8 -68 12 -14 6 -18 2 -18 -18 0 -21 7 -26 47 -36
90 -23 176 15 189 83 10 58 -32 116 -85 116 -31 0 -26 11 24 60 27 27 45 53
45 67 0 23 -2 23 -105 23 -98 0 -105 -1 -105 -20z"/>
<path d="M10277 9278 c-13 -18 -49 -68 -80 -110 -40 -54 -57 -87 -57 -108 l0
-30 85 0 85 0 0 -35 c0 -31 3 -35 25 -35 22 0 25 4 25 35 0 31 3 35 25 35 20
0 25 5 25 25 0 20 -5 25 -25 25 l-25 0 0 115 0 115 -29 0 c-22 0 -36 -9 -54
-32z m28 -175 c-5 -20 -12 -23 -55 -23 -28 0 -50 3 -50 6 0 3 15 25 33 49 17
24 41 57 52 72 l20 28 3 -54 c2 -30 1 -65 -3 -78z"/>
<path d="M18610 9290 c0 -6 7 -10 15 -10 8 0 15 2 15 4 0 2 -7 6 -15 10 -8 3
-15 1 -15 -4z"/>
<path d="M8110 9256 c0 -28 -4 -35 -25 -40 -31 -8 -36 -46 -6 -46 17 0 19 -9
23 -91 4 -106 13 -119 90 -119 44 0 48 2 48 24 0 19 -4 23 -19 19 -10 -3 -28
0 -40 6 -18 10 -21 21 -21 86 l0 75 40 0 c36 0 40 3 40 25 0 23 -4 25 -40 25
-39 0 -40 1 -40 35 0 31 -3 35 -25 35 -22 0 -25 -4 -25 -34z"/>
<path d="M8730 9255 l0 -35 -48 0 c-27 0 -57 -6 -68 -15 -25 -19 -34 -19 -34
0 0 9 -9 15 -25 15 l-25 0 0 -130 0 -130 30 0 30 0 0 95 c0 93 1 96 26 105 14
6 43 10 64 10 l38 0 4 -91 c4 -106 13 -119 90 -119 44 0 48 2 48 24 0 19 -4
22 -23 19 -41 -8 -57 20 -57 98 l0 69 40 0 c36 0 40 3 40 25 0 23 -4 25 -40
25 -39 0 -40 1 -40 35 0 31 -3 35 -25 35 -22 0 -25 -4 -25 -35z"/>
<path d="M18705 9270 c3 -5 8 -10 11 -10 2 0 4 5 4 10 0 6 -5 10 -11 10 -5 0
-7 -4 -4 -10z"/>
<path d="M18770 9267 c0 -10 8 -17 18 -17 9 0 13 4 7 8 -5 4 -13 11 -17 16 -5
5 -8 2 -8 -7z"/>
<path d="M19770 9271 c0 -9 33 -21 58 -21 6 0 12 5 12 11 0 6 -7 9 -15 5 -8
-3 -15 -1 -15 4 0 6 -9 10 -20 10 -11 0 -20 -4 -20 -9z"/>
<path d="M16955 9221 c-11 -50 17 -74 29 -24 5 17 2 31 -7 41 -13 12 -16 10
-22 -17z"/>
<path d="M8335 9226 c-5 -3 -22 -7 -37 -10 -19 -4 -28 -13 -28 -26 0 -18 5
-19 65 -13 63 6 65 5 75 -21 16 -43 13 -46 -40 -46 -70 0 -107 -21 -115 -64
-8 -42 7 -74 42 -87 29 -11 80 -3 102 15 11 8 15 8 18 -1 3 -7 16 -13 29 -13
24 0 24 0 24 109 0 130 -9 148 -80 156 -25 2 -49 3 -55 1z m80 -166 c21 -34
-47 -81 -86 -59 -20 10 -23 26 -13 53 7 18 89 23 99 6z"/>
<path d="M9106 9213 c-29 -12 -41 -13 -44 -5 -2 7 -15 12 -28 12 l-24 0 0
-130 0 -130 30 0 29 0 3 103 3 102 37 9 c60 15 68 1 68 -115 l0 -99 30 0 30 0
0 119 c0 90 -3 121 -14 130 -24 20 -79 22 -120 4z"/>
<path d="M9354 9220 c-43 -17 -64 -58 -64 -126 0 -53 4 -67 26 -93 22 -26 33
-31 71 -31 24 0 53 5 64 10 16 9 19 7 19 -12 0 -13 -7 -34 -16 -47 -15 -21
-23 -23 -80 -19 -53 3 -63 1 -67 -13 -10 -37 102 -52 163 -21 49 24 59 61 59
220 l1 132 -24 0 c-14 0 -27 -4 -31 -9 -3 -6 -19 -4 -40 5 -39 16 -51 16 -81
4z m97 -50 c16 -9 19 -22 19 -75 0 -53 -3 -66 -19 -75 -29 -15 -62 -12 -83 7
-24 21 -25 114 -2 137 18 18 56 21 85 6z"/>
<path d="M8890 9090 l0 -130 30 0 30 0 0 130 0 130 -30 0 -30 0 0 -130z"/>
<path d="M19991 9204 c0 -11 3 -14 6 -6 3 7 2 16 -1 19 -3 4 -6 -2 -5 -13z"/>
<path d="M17000 9168 c0 -18 7 -42 15 -52 14 -18 15 -18 25 8 8 21 6 32 -6 51
-22 34 -34 31 -34 -7z"/>
<path d="M17054 9096 c-6 -25 10 -66 25 -66 17 0 21 33 9 61 -16 35 -26 37
-34 5z"/>
<path d="M10445 9018 c-8 -24 -25 -103 -25 -120 0 -11 7 -18 19 -18 13 0 24
16 40 59 25 70 26 77 5 85 -24 9 -34 7 -39 -6z"/>
<path d="M17112 9009 c1 -12 9 -24 16 -27 9 -3 13 3 10 19 -1 12 -9 24 -16 27
-9 3 -13 -3 -10 -19z"/>
<path d="M20070 8990 c0 -5 5 -10 11 -10 5 0 7 5 4 10 -3 6 -8 10 -11 10 -2 0
-4 -4 -4 -10z"/>
<path d="M10746 8376 c-57 -21 -87 -46 -121 -101 -26 -42 -30 -58 -30 -121 0
-40 4 -76 8 -80 4 -5 31 17 60 47 103 110 101 107 88 123 -10 12 -4 16 39 25
82 18 92 16 86 -16 -3 -16 -8 -45 -12 -65 -6 -38 -17 -48 -30 -27 -4 7 -16 1
-34 -16 -18 -17 -30 -23 -34 -16 -15 23 -24 9 -33 -51 -6 -35 -9 -65 -7 -67 2
-2 32 2 68 9 60 11 64 13 53 31 -10 17 -1 30 81 112 50 51 92 98 92 104 0 21
-52 73 -93 94 -52 27 -131 33 -181 15z"/>
<path d="M7948 8365 c-90 -33 -147 -105 -155 -196 -5 -49 -2 -67 21 -113 88
-179 352 -181 441 -3 76 154 -43 329 -224 326 -25 0 -63 -7 -83 -14z m172 -71
c0 -4 -27 -57 -60 -119 -33 -62 -60 -120 -60 -128 0 -19 -36 -41 -50 -32 -14
9 -12 52 3 58 6 2 39 55 71 116 43 80 64 111 77 111 11 0 19 -3 19 -6z m-140
-34 c24 -24 26 -77 3 -102 -20 -22 -61 -23 -85 -1 -39 35 -10 123 42 123 11 0
29 -9 40 -20z m182 -93 c38 -29 30 -109 -12 -122 -54 -17 -99 31 -84 89 10 43
60 60 96 33z"/>
<path d="M7922 8208 c2 -21 8 -33 18 -33 10 0 16 12 18 33 3 27 0 32 -18 32
-18 0 -21 -5 -18 -32z"/>
<path d="M8112 8138 c-16 -16 -15 -43 2 -57 21 -18 41 21 26 49 -13 24 -13 23
-28 8z"/>
<path d="M8410 8295 c0 -82 17 -104 22 -27 l3 47 28 -47 c43 -71 57 -64 57 27
0 43 -4 75 -10 75 -5 0 -10 -20 -10 -45 0 -46 -14 -60 -25 -26 -8 25 -44 71
-56 71 -5 0 -9 -34 -9 -75z"/>
<path d="M8580 8350 c-44 -44 -13 -130 48 -130 38 1 62 22 68 61 12 71 -68
117 -116 69z m74 -16 c30 -29 10 -94 -28 -94 -20 0 -36 22 -36 51 0 27 22 59
40 59 5 0 16 -7 24 -16z"/>
<path d="M8817 8359 c-28 -17 -39 -57 -27 -95 12 -34 39 -50 76 -42 24 4 31
30 8 28 -49 -5 -71 21 -54 64 7 20 16 26 41 26 20 0 29 4 27 13 -6 16 -48 20
-71 6z"/>
<path d="M8930 8350 c-44 -44 -13 -130 48 -130 38 1 62 22 69 63 11 67 -70
114 -117 67z m86 -35 c12 -50 -28 -92 -61 -65 -16 13 -20 57 -7 76 19 30 59
23 68 -11z"/>
<path d="M9092 8358 c-24 -24 -14 -57 23 -72 19 -8 35 -19 35 -24 0 -14 -30
-23 -51 -17 -13 4 -19 1 -19 -9 0 -23 62 -21 83 2 25 27 21 40 -18 64 -41 23
-41 44 -1 41 38 -3 28 21 -10 25 -16 2 -35 -3 -42 -10z"/>
<path d="M9200 8355 c0 -8 9 -15 20 -15 18 0 20 -7 20 -60 0 -47 3 -60 15 -60
12 0 15 13 15 60 0 53 2 60 20 60 11 0 20 7 20 15 0 12 -13 15 -55 15 -42 0
-55 -3 -55 -15z"/>
<path d="M9394 8357 c-3 -8 -4 -41 -2 -73 l3 -59 43 0 c50 0 62 19 14 23 -25
3 -32 8 -30 20 2 9 13 18 26 20 30 5 28 22 -3 22 -38 0 -32 28 8 32 46 4 39
22 -11 26 -29 2 -44 -1 -48 -11z"/>
<path d="M9520 8295 c0 -82 17 -103 22 -27 l3 47 14 -27 c8 -16 22 -28 31 -28
9 0 23 12 31 28 l14 27 3 -47 c5 -76 22 -55 22 27 0 88 -15 98 -47 33 l-20
-43 -22 43 c-34 67 -51 56 -51 -33z"/>
<path d="M9704 8356 c-10 -25 1 -129 14 -134 9 -3 12 16 12 72 0 46 -4 76 -10
76 -6 0 -13 -6 -16 -14z"/>
<path d="M11351 8325 c-19 -26 -20 -26 -31 -6 -10 19 -47 32 -38 14 2 -5 10
-20 17 -35 12 -24 11 -31 -7 -62 -21 -35 -21 -36 -2 -36 11 0 20 4 20 8 0 5 6
17 14 27 14 19 15 19 27 -8 7 -15 18 -27 26 -27 18 0 16 10 -7 45 -19 29 -19
29 1 61 24 40 9 54 -20 19z"/>
<path d="M11450 8338 c-13 -5 -28 -14 -32 -21 -13 -21 -9 -85 8 -101 17 -18
84 -22 84 -6 0 6 -10 10 -23 10 -32 0 -47 18 -47 56 0 32 13 44 51 44 10 0 19
4 19 9 0 14 -33 19 -60 9z"/>
<path d="M13146 8334 c-27 -27 -20 -54 20 -70 42 -18 40 -39 -4 -39 -19 0 -32
-5 -32 -12 0 -8 14 -13 39 -13 68 0 83 52 24 80 -41 19 -43 40 -3 40 32 0 40
14 14 24 -25 10 -42 7 -58 -10z"/>
<path d="M11170 8270 l0 -70 45 0 c51 0 62 17 13 22 -32 3 -50 25 -26 32 50
15 54 19 23 25 -17 4 -31 13 -33 24 -3 14 4 17 32 17 20 0 36 5 36 10 0 6 -20
10 -45 10 l-45 0 0 -70z"/>
<path d="M11540 8270 c0 -56 3 -70 15 -70 10 0 15 10 15 30 0 27 3 30 30 30
27 0 30 -3 30 -30 0 -20 5 -30 15 -30 12 0 15 14 15 70 0 54 -3 70 -14 70 -9
0 -16 -12 -18 -27 -2 -22 -9 -29 -30 -31 -25 -3 -28 0 -28 27 0 21 -5 31 -15
31 -12 0 -15 -14 -15 -70z"/>
<path d="M11706 8283 c-10 -32 -21 -64 -23 -70 -3 -7 2 -13 10 -13 8 0 17 7
21 15 3 8 17 15 31 15 14 0 28 -7 31 -15 4 -8 13 -15 21 -15 10 0 12 6 7 23
-41 132 -69 149 -98 60z m53 -20 c1 -7 -6 -13 -14 -13 -16 0 -19 17 -8 46 6
16 7 16 14 -2 4 -10 8 -25 8 -31z"/>
<path d="M11830 8270 c0 -54 3 -70 14 -70 11 0 16 14 18 48 l3 47 25 -45 c14
-25 33 -46 43 -48 15 -3 17 5 17 67 0 41 -4 71 -10 71 -5 0 -10 -18 -10 -40 0
-22 -4 -40 -9 -40 -6 0 -20 18 -32 40 -14 24 -30 40 -41 40 -16 0 -18 -9 -18
-70z"/>
<path d="M11996 8318 c-39 -56 -4 -122 62 -116 35 3 37 5 40 41 3 34 1 37 -22
37 -14 0 -26 -4 -26 -10 0 -5 5 -10 10 -10 6 0 10 -9 10 -20 0 -13 -7 -20 -18
-20 -25 0 -42 20 -42 50 0 35 17 50 57 50 18 0 33 5 33 10 0 6 -20 10 -44 10
-35 0 -48 -5 -60 -22z"/>
<path d="M12130 8270 l0 -70 50 0 c28 0 50 5 50 10 0 6 -16 10 -35 10 -28 0
-35 4 -35 20 0 15 7 20 25 20 14 0 25 5 25 10 0 6 -11 10 -25 10 -18 0 -25 5
-25 20 0 16 7 20 35 20 19 0 35 5 35 10 0 6 -22 10 -50 10 l-50 0 0 -70z"/>
<path d="M12310 8270 l0 -71 41 3 c46 3 67 24 54 54 -4 11 -8 33 -9 49 -1 28
-4 30 -43 33 l-43 3 0 -71z m58 33 c-2 -10 -10 -18 -18 -18 -8 0 -16 8 -18 18
-2 12 3 17 18 17 15 0 20 -5 18 -17z m10 -60 c-2 -10 -12 -18 -23 -18 -11 0
-21 8 -23 18 -3 13 3 17 23 17 20 0 26 -4 23 -17z"/>
<path d="M12440 8270 l0 -70 45 0 c25 0 45 5 45 10 0 6 -13 10 -30 10 -23 0
-30 4 -30 20 0 15 7 20 25 20 14 0 25 5 25 10 0 6 -11 10 -25 10 -18 0 -25 5
-25 20 0 16 7 20 30 20 17 0 30 5 30 10 0 6 -20 10 -45 10 l-45 0 0 -70z"/>
<path d="M12560 8270 c0 -78 17 -96 22 -22 l3 47 30 -47 c17 -28 37 -48 47
-48 16 0 18 10 18 70 0 56 -3 70 -15 70 -11 0 -15 -12 -15 -47 l0 -48 -30 48
c-44 69 -60 63 -60 -23z"/>
<path d="M12710 8270 l0 -70 45 0 c25 0 45 5 45 10 0 6 -13 10 -30 10 -23 0
-30 4 -30 20 0 15 7 20 25 20 14 0 25 5 25 10 0 6 -11 10 -25 10 -18 0 -25 5
-25 20 0 16 7 20 30 20 17 0 30 5 30 10 0 6 -20 10 -45 10 l-45 0 0 -70z"/>
<path d="M12830 8270 c0 -56 3 -70 15 -70 10 0 15 10 15 30 0 25 4 30 25 30
14 0 25 5 25 10 0 6 -11 10 -25 10 -18 0 -25 5 -25 20 0 16 7 20 30 20 17 0
30 5 30 10 0 6 -20 10 -45 10 l-45 0 0 -70z"/>
<path d="M12950 8270 c0 -56 3 -70 15 -70 12 0 15 14 15 70 0 56 -3 70 -15 70
-12 0 -15 -14 -15 -70z"/>
<path d="M13000 8330 c0 -5 9 -10 20 -10 18 0 20 -7 20 -60 0 -47 3 -60 15
-60 12 0 15 13 15 60 0 53 2 60 19 60 11 0 23 5 26 10 4 6 -17 10 -54 10 -34
0 -61 -4 -61 -10z"/>
<path d="M15200 8170 c0 -5 -18 -10 -40 -10 l-40 0 -1 -42 c-3 -66 2 -112 12
-122 13 -14 -40 -46 -76 -46 -22 -1 -26 -3 -15 -9 15 -9 219 4 228 14 3 3 -7
5 -22 5 -15 0 -25 4 -21 9 3 5 -3 11 -12 13 -10 3 1 8 25 12 31 6 42 12 42 26
0 11 12 23 33 31 17 7 35 14 40 17 4 2 7 -3 7 -12 0 -27 66 -21 98 9 40 37 20
48 -87 46 l-91 -2 0 25 c0 20 -5 26 -21 26 -11 0 -29 5 -40 10 -13 7 -19 7
-19 0z m-3 -206 c-3 -3 -12 -4 -19 -1 -8 3 -5 6 6 6 11 1 17 -2 13 -5z"/>
<path d="M16137 8154 c-3 -3 -45 -15 -92 -25 -48 -11 -96 -24 -106 -30 -11 -5
-19 -6 -19 -1 0 6 -34 13 -76 17 -70 6 -77 5 -90 -14 -9 -12 -22 -21 -30 -21
-10 0 -14 -12 -14 -40 0 -35 3 -40 23 -40 13 0 28 -5 33 -10 6 -6 44 -14 85
-19 65 -7 68 -9 29 -11 l-45 -3 40 -6 c51 -8 149 1 300 28 143 25 247 26 425
6 73 -9 134 -14 136 -12 2 2 -17 26 -41 54 -48 55 -49 55 -191 68 -62 5 -98
16 -167 51 -28 14 -187 20 -200 8z"/>
<path d="M8403 8105 c-8 -23 3 -103 17 -120 16 -20 64 -19 84 1 20 20 23 138
4 132 -8 -3 -14 -27 -16 -60 -5 -98 -62 -85 -62 14 0 46 -14 64 -27 33z"/>
<path d="M8560 8045 c0 -60 3 -75 15 -75 10 0 15 10 15 29 0 26 4 30 33 33 28
3 32 7 35 36 3 27 -1 34 -23 42 -14 6 -37 10 -51 10 -23 0 -24 -2 -24 -75z
m70 25 c0 -13 -7 -20 -20 -20 -13 0 -20 7 -20 20 0 13 7 20 20 20 13 0 20 -7
20 -20z"/>
<path d="M8737 8114 c-10 -11 3 -24 24 -24 17 0 19 -7 19 -61 0 -81 24 -77 28
4 3 49 6 57 22 57 11 0 20 7 20 15 0 11 -13 15 -53 15 -30 0 -57 -3 -60 -6z"/>
<path d="M8890 8100 c-44 -44 -13 -130 48 -130 33 0 45 8 61 37 39 74 -51 151
-109 93z m85 -40 c14 -45 -18 -80 -56 -60 -23 13 -26 62 -3 84 19 19 49 7 59
-24z"/>
<path d="M9123 8108 c-28 -14 -30 -28 -3 -28 18 0 20 -7 20 -55 0 -30 5 -55
10 -55 6 0 10 32 10 75 0 78 -1 80 -37 63z"/>
<path d="M9233 8113 c-21 -8 -15 -26 7 -20 10 3 24 -1 30 -8 9 -10 3 -23 -25
-54 -20 -22 -34 -45 -30 -51 3 -5 26 -10 51 -10 32 0 44 4 44 15 0 10 -10 15
-31 15 l-31 0 31 35 c35 41 37 48 15 69 -15 16 -37 19 -61 9z"/>
<path d="M9400 8045 c0 -43 4 -75 10 -75 6 0 10 18 10 40 0 42 14 54 25 20 10
-30 39 -24 58 13 l16 32 0 -52 c1 -29 6 -53 11 -53 6 0 10 32 10 75 0 88 -15
98 -47 33 l-20 -43 -22 43 c-34 67 -51 56 -51 -33z"/>
<path d="M9600 8100 c-44 -44 -13 -130 48 -130 33 0 45 8 61 37 39 74 -51 151
-109 93z m84 -36 c13 -51 -16 -84 -55 -64 -37 21 -21 90 21 90 22 0 29 -6 34
-26z"/>
<path d="M9754 8106 c-3 -7 -4 -39 -2 -71 4 -74 26 -87 30 -18 l3 48 28 -47
c42 -72 57 -64 57 27 0 43 -4 75 -10 75 -5 0 -10 -20 -10 -45 0 -25 -3 -45 -7
-45 -5 0 -20 21 -35 45 -28 46 -45 56 -54 31z"/>
<path d="M9900 8105 c0 -8 9 -15 20 -15 18 0 20 -7 20 -60 0 -47 3 -60 15 -60
12 0 15 13 15 60 0 53 2 60 20 60 11 0 20 7 20 15 0 12 -13 15 -55 15 -42 0
-55 -3 -55 -15z"/>
<path d="M10040 8045 c0 -60 3 -75 15 -75 10 0 15 10 15 30 0 27 3 30 30 30
27 0 30 -3 30 -30 0 -20 5 -30 15 -30 12 0 15 15 15 75 0 60 -3 75 -15 75 -10
0 -15 -10 -15 -30 0 -27 -3 -30 -30 -30 -27 0 -30 3 -30 30 0 20 -5 30 -15 30
-12 0 -15 -15 -15 -75z"/>
<path d="M10206 8104 c-24 -23 -16 -47 21 -64 43 -20 39 -46 -5 -43 -43 2 -37
-21 7 -25 39 -4 61 12 61 45 0 18 -9 28 -35 39 -19 8 -35 18 -35 23 0 13 28
21 46 14 12 -4 15 -2 12 8 -7 21 -53 23 -72 3z"/>
<path d="M11167 8093 c-10 -10 -8 -78 3 -107 11 -30 51 -43 86 -27 22 10 24
16 24 77 0 48 -3 65 -12 62 -8 -3 -14 -27 -16 -59 -3 -58 -15 -73 -44 -58 -14
8 -18 22 -18 64 0 51 -7 65 -23 48z"/>
<path d="M11320 8024 c0 -56 3 -75 13 -72 6 3 13 17 15 31 3 22 8 27 32 27 48
0 54 71 7 84 -63 17 -67 12 -67 -70z m70 26 c0 -13 -7 -20 -20 -20 -13 0 -20
7 -20 20 0 13 7 20 20 20 13 0 20 -7 20 -20z"/>
<path d="M11480 8085 c0 -9 9 -15 25 -15 24 0 25 -3 25 -60 0 -33 4 -60 10
-60 6 0 10 27 10 60 0 57 1 60 25 60 16 0 25 6 25 15 0 12 -13 15 -60 15 -47
0 -60 -3 -60 -15z"/>
<path d="M11633 8074 c-20 -20 -24 -31 -19 -57 13 -62 65 -86 114 -51 16 11
22 25 22 55 0 74 -66 104 -117 53z m87 -49 c0 -24 -6 -38 -19 -45 -19 -10 -51
-4 -51 9 0 3 -3 16 -6 28 -4 14 1 28 15 42 30 30 61 13 61 -34z"/>
<path d="M11847 8080 c3 -11 0 -20 -6 -20 -9 0 -9 -5 -1 -20 6 -11 16 -20 22
-20 6 0 5 6 -3 17 -11 13 -11 17 -1 20 17 6 15 43 -2 43 -9 0 -12 -7 -9 -20z"/>
<path d="M11928 8088 c-32 -11 -38 -33 -8 -25 18 5 20 0 20 -54 0 -46 3 -59
15 -59 12 0 15 15 15 75 0 41 -3 75 -7 74 -5 0 -20 -5 -35 -11z"/>
<path d="M12030 8085 c-7 -8 -10 -24 -7 -36 3 -12 0 -30 -6 -40 -24 -39 42
-79 79 -48 17 14 19 59 2 59 -9 0 -9 3 0 12 18 18 14 46 -7 58 -27 14 -46 13
-61 -5z m50 -25 c0 -21 -24 -28 -35 -10 -8 14 3 30 21 30 8 0 14 -9 14 -20z
m-4 -54 c15 -11 16 -17 7 -27 -16 -16 -43 -4 -43 21 0 24 9 25 36 6z"/>
<path d="M12206 8084 c-10 -9 -16 -33 -16 -59 0 -47 19 -75 50 -75 31 0 50 28
50 74 0 64 -47 98 -84 60z m49 -60 c0 -36 -4 -49 -14 -49 -22 0 -36 52 -22 82
18 39 36 23 36 -33z"/>
<path d="M12326 8084 c-10 -9 -16 -33 -16 -59 0 -47 19 -75 50 -75 31 0 50 28
50 75 0 47 -19 75 -50 75 -10 0 -26 -7 -34 -16z m52 -56 c3 -51 -19 -73 -38
-38 -13 23 -13 32 0 65 15 39 35 25 38 -27z"/>
<path d="M12444 8086 c-23 -17 -27 -94 -5 -119 33 -41 91 -4 91 58 0 61 -43
92 -86 61z m50 -22 c18 -47 -6 -108 -32 -82 -16 16 -15 71 0 86 16 16 25 15
32 -4z"/>
<path d="M18591 7981 c-18 -12 14 -18 144 -31 129 -12 154 -12 136 -1 -8 5
-61 12 -118 16 -57 4 -106 11 -109 16 -7 11 -35 11 -53 0z"/>
<path d="M12136 7958 c-12 -46 3 -54 22 -13 15 33 15 35 -2 35 -7 0 -16 -10
-20 -22z"/>
<path d="M17075 7930 c3 -5 13 -10 21 -10 8 0 14 5 14 10 0 6 -9 10 -21 10
-11 0 -17 -4 -14 -10z"/>
<path d="M17438 7933 c12 -2 30 -2 40 0 9 3 -1 5 -23 4 -22 0 -30 -2 -17 -4z"/>
<path d="M15021 7916 c10 -9 79 -14 74 -5 -4 5 -22 9 -42 9 -20 0 -34 -2 -32
-4z"/>
<path d="M15655 7910 c-8 -13 55 -13 75 0 11 7 4 10 -27 10 -23 0 -45 -4 -48
-10z"/>
<path d="M18748 7913 c7 -3 16 -2 19 1 4 3 -2 6 -13 5 -11 0 -14 -3 -6 -6z"/>
<path d="M14799 7866 c-2 -2 -29 -6 -59 -9 -30 -3 -66 -9 -79 -13 -19 -6 -22
-4 -16 7 4 8 -1 5 -12 -6 -11 -11 -20 -21 -19 -21 1 -2 90 15 186 34 25 5 36
10 24 11 -11 0 -23 -1 -25 -3z"/>
<path d="M15853 7833 c9 -2 25 -2 35 0 9 3 1 5 -18 5 -19 0 -27 -2 -17 -5z"/>
<path d="M14755 7765 c102 -17 122 -18 108 -4 -5 5 -50 12 -99 14 l-89 4 80
-14z"/>
<path d="M16705 7770 c3 -5 14 -10 23 -10 15 0 15 2 2 10 -20 13 -33 13 -25 0z"/>
<path d="M14445 7735 c-6 -8 -35 -29 -65 -46 -31 -17 -44 -28 -30 -25 14 3 61
12 105 21 122 24 126 25 120 35 -3 4 3 11 12 14 10 3 -15 3 -55 1 -48 -4 -71
-2 -67 5 10 16 -9 12 -20 -5z m115 -15 c0 -5 -19 -10 -42 -9 -37 1 -39 2 -18
9 36 12 60 12 60 0z"/>
<path d="M15621 7681 c22 -14 127 -26 114 -13 -5 5 -37 13 -70 16 -40 4 -55 3
-44 -3z"/>
<path d="M9217 7453 c-4 -3 -7 -14 -7 -24 0 -12 -6 -16 -18 -12 -33 8 -59 -44
-40 -79 6 -12 20 -18 43 -18 l35 0 0 70 c0 70 -1 76 -13 63z m-7 -82 c0 -36
-17 -49 -37 -28 -20 19 -8 57 18 57 14 0 19 -7 19 -29z"/>
<path d="M9728 7453 c0 -5 -2 -15 -2 -23 -1 -9 -9 -14 -22 -12 -29 4 -46 -20
-42 -60 3 -30 6 -33 41 -36 l37 -3 0 70 c0 39 -2 71 -5 71 -3 0 -6 -3 -7 -7z
m-3 -78 c0 -23 -13 -45 -27 -45 -12 0 -27 42 -20 58 7 21 47 10 47 -13z"/>
<path d="M7805 7436 c-19 -21 -13 -43 11 -43 15 0 22 5 21 16 -2 25 -20 40
-32 27z"/>
<path d="M7855 7440 c-3 -5 3 -10 14 -10 19 0 21 -6 21 -55 0 -30 5 -55 10
-55 6 0 10 25 10 55 0 48 2 55 20 55 11 0 20 5 20 10 0 6 -20 10 -44 10 -25 0
-48 -4 -51 -10z"/>
<path d="M7967 7433 c-2 -10 -5 -39 -6 -65 0 -38 3 -48 15 -48 11 0 15 6 11
20 -8 32 14 36 35 7 19 -26 58 -37 58 -17 0 13 41 29 58 23 6 -3 12 -11 12
-19 0 -8 5 -14 10 -14 14 0 13 5 -11 72 -12 32 -27 57 -33 55 -6 -2 -20 -29
-31 -60 -11 -31 -22 -57 -25 -57 -3 0 -11 9 -18 20 -10 16 -10 24 0 40 18 28
0 54 -40 58 -22 2 -31 -1 -35 -15z m63 -23 c0 -13 -7 -20 -20 -20 -13 0 -20 7
-20 20 0 13 7 20 20 20 13 0 20 -7 20 -20z m103 -20 c4 -15 0 -20 -14 -20 -20
0 -23 8 -13 34 7 20 20 13 27 -14z"/>
<path d="M8230 7385 c0 -37 4 -65 10 -65 6 0 10 21 11 48 l0 47 16 -32 c9 -18
20 -33 25 -33 4 0 15 15 25 33 l18 32 3 -47 c4 -70 17 -59 17 14 -1 69 -15 85
-35 38 -18 -44 -26 -44 -50 -5 -12 19 -26 35 -31 35 -5 0 -9 -29 -9 -65z"/>
<path d="M8650 7440 c0 -5 9 -10 20 -10 18 0 20 -7 20 -55 0 -30 5 -55 10 -55
6 0 10 25 10 55 0 48 2 55 20 55 11 0 20 5 20 10 0 6 -22 10 -50 10 -27 0 -50
-4 -50 -10z"/>
<path d="M9300 7385 l0 -65 34 0 c42 0 65 24 48 50 -6 11 -9 26 -6 35 9 23
-14 45 -47 45 -29 0 -29 0 -29 -65z m44 49 c18 -7 21 -30 6 -39 -19 -12 -39 3
-33 24 6 24 5 23 27 15z m24 -75 c4 -24 -36 -32 -48 -9 -5 9 -6 20 -3 24 12
12 48 1 51 -15z"/>
<path d="M9810 7385 c0 -37 4 -65 10 -65 6 0 10 11 10 25 0 14 6 25 13 25 8 0
20 -11 27 -25 7 -14 17 -25 22 -25 12 0 10 14 -3 27 -9 9 -9 20 1 44 12 28 12
33 -5 45 -10 8 -31 14 -47 14 -28 0 -28 0 -28 -65z m65 25 c0 -8 -10 -16 -22
-18 -18 -3 -23 2 -23 18 0 16 5 21 23 18 12 -2 22 -10 22 -18z"/>
<path d="M10395 7440 c-5 -7 0 -11 11 -10 54 6 58 -13 14 -63 -16 -19 -30 -37
-30 -41 0 -3 21 -6 46 -6 30 0 43 4 38 11 -3 6 -17 8 -30 5 -30 -8 -30 -1 2
36 34 41 29 72 -13 76 -17 2 -34 -2 -38 -8z"/>
<path d="M10502 7438 c-7 -7 -12 -30 -12 -53 0 -46 13 -65 45 -65 12 0 26 5
33 12 15 15 16 72 2 99 -12 21 -50 25 -68 7z m58 -58 c0 -37 -19 -58 -41 -44
-13 8 -11 78 3 92 19 19 38 -5 38 -48z"/>
<path d="M10605 7440 c-5 -8 1 -11 16 -8 36 5 36 -27 0 -68 -17 -19 -31 -37
-31 -39 0 -3 21 -5 46 -5 25 0 43 4 39 9 -3 6 -14 8 -25 6 -25 -5 -25 -1 1 34
28 38 22 75 -13 79 -14 2 -29 -2 -33 -8z"/>
<path d="M10700 7440 c0 -5 9 -10 20 -10 17 0 19 -3 10 -19 -14 -26 -13 -31 5
-31 21 0 31 -30 14 -41 -8 -5 -22 -6 -31 -3 -10 3 -18 1 -18 -5 0 -15 53 -14
68 1 19 19 14 48 -9 56 -19 7 -19 9 -5 21 28 23 19 41 -19 41 -19 0 -35 -4
-35 -10z"/>
<path d="M8560 7425 c0 -13 -7 -15 -33 -10 -25 5 -37 2 -47 -10 -13 -15 -11
-20 13 -39 34 -27 34 -34 0 -39 -21 -4 -19 -4 7 -3 44 1 54 30 16 47 -36 17
-32 29 8 29 33 0 35 -2 38 -37 3 -32 7 -38 28 -40 14 -1 18 0 8 3 -21 6 -25
70 -6 76 9 3 8 9 -4 21 -21 21 -28 21 -28 2z"/>
<path d="M9000 7425 c0 -14 -6 -16 -31 -11 -54 11 -81 -31 -34 -52 33 -15 32
-30 -2 -35 -21 -4 -19 -4 7 -3 44 1 54 30 16 47 -36 17 -32 29 9 29 34 0 35
-1 35 -40 0 -35 3 -40 23 -40 13 0 17 3 11 8 -20 13 -26 49 -10 65 13 13 13
17 -4 32 -19 17 -20 17 -20 0z"/>
<path d="M10290 7426 c0 -8 -13 -16 -30 -18 -16 -3 -30 -1 -30 4 0 5 -4 6 -10
3 -13 -8 -13 -95 -1 -95 6 0 11 17 13 38 3 32 7 37 31 40 26 3 27 1 27 -37 0
-38 2 -41 28 -41 23 1 24 2 10 11 -23 13 -25 69 -3 69 12 0 11 4 -5 20 -24 24
-30 25 -30 6z"/>
<path d="M8385 7396 c-12 -18 -13 -30 -5 -50 8 -23 15 -27 42 -24 30 3 33 7
36 38 6 56 -44 81 -73 36z m53 -28 c-3 -36 -31 -50 -42 -22 -10 26 3 54 25 54
17 0 20 -6 17 -32z"/>
<path d="M8750 7369 c0 -27 5 -49 10 -49 6 0 10 16 10 35 0 21 6 37 16 43 14
8 12 10 -10 14 -25 5 -26 4 -26 -43z"/>
<path d="M8817 7413 c-2 -5 -3 -21 -1 -38 1 -16 3 -36 3 -42 1 -8 15 -12 39
-11 l38 1 0 44 c-1 23 -4 43 -8 43 -5 0 -8 -15 -8 -34 0 -22 -6 -36 -17 -40
-22 -9 -35 12 -29 46 5 25 -8 48 -17 31z"/>
<path d="M9078 7413 c-22 -5 -35 -50 -21 -72 12 -19 73 -28 73 -11 0 6 -5 8
-10 5 -13 -8 -50 4 -50 16 0 5 14 9 30 9 22 0 30 5 30 18 0 18 -18 43 -29 41
-4 -1 -14 -3 -23 -6z m32 -29 c0 -11 -5 -14 -16 -10 -9 3 -18 6 -20 6 -3 0 -2
5 1 10 10 16 35 12 35 -6z"/>
<path d="M9405 7412 c-9 -10 -5 -92 5 -92 6 0 10 15 10 33 0 25 6 36 22 44 22
10 22 10 -5 15 -14 3 -29 3 -32 0z"/>
<path d="M9480 7410 c-12 -8 -9 -10 13 -10 18 0 27 -5 27 -16 0 -10 -6 -14
-14 -11 -21 8 -50 -17 -43 -37 4 -11 18 -16 42 -16 34 0 35 1 35 40 0 29 -5
42 -19 50 -24 12 -22 12 -41 0z m38 -62 c-7 -19 -38 -22 -38 -4 0 10 9 16 21
16 12 0 19 -5 17 -12z"/>
<path d="M9583 7413 c-20 -4 -23 -11 -23 -49 0 -24 5 -44 10 -44 6 0 10 18 10
40 0 33 3 40 20 40 17 0 20 -7 20 -40 0 -22 5 -40 10 -40 17 0 12 87 -6 94 -9
3 -16 5 -17 5 -1 -1 -12 -4 -24 -6z"/>
<path d="M9938 7413 c-22 -5 -35 -50 -21 -72 6 -9 25 -17 44 -18 l34 -2 -32
10 c-41 12 -43 29 -3 29 22 0 30 5 30 18 0 18 -18 43 -29 41 -4 -1 -14 -3 -23
-6z m32 -26 c0 -7 -9 -13 -20 -14 -20 -2 -26 8 -13 20 11 12 33 8 33 -6z"/>
<path d="M10033 7413 c-21 -4 -23 -10 -23 -69 0 -36 4 -64 10 -64 6 0 10 9 10
19 0 14 8 21 28 23 23 2 28 8 30 36 3 31 -12 64 -27 61 -3 -1 -16 -4 -28 -6z
m42 -34 c8 -24 -16 -55 -34 -45 -6 4 -11 20 -11 37 0 22 5 29 19 29 11 0 23
-9 26 -21z"/>
<path d="M10126 7407 c-12 -9 -17 -23 -14 -47 3 -33 5 -35 38 -35 33 0 35 2
38 35 3 31 -15 60 -38 60 -3 0 -14 -6 -24 -13z m49 -28 c5 -14 1 -27 -10 -38
-15 -15 -17 -15 -30 2 -17 23 -8 57 15 57 10 0 22 -10 25 -21z"/>
</g>
</svg>
